<svg width="300" height="129" viewBox="0 0 300 129" fill="none" xmlns="http://www.w3.org/2000/svg">
<g clip-path="url(#clip0_1_4)">
<path d="M65.8481 71.6876C65.8508 71.2932 65.7722 70.9024 65.6172 70.5398C65.4622 70.1771 65.234 69.8503 64.947 69.5798C64.66 69.3092 64.3203 69.1008 63.9491 68.9674C63.578 68.834 63.1833 68.7786 62.7897 68.8046C62.3962 68.8306 62.0122 68.9374 61.6618 69.1185C61.3114 69.2995 61.0021 69.5508 60.7531 69.8568C60.5042 70.1627 60.3211 70.5167 60.2151 70.8966C60.1091 71.2765 60.0826 71.6742 60.1372 72.0648L51.8935 82.8603C51.5417 83.5638 51.4053 84.3555 51.5014 85.1362C51.5975 85.9169 51.9218 86.6518 52.4337 87.249L53.0803 88.0034L56.0474 87.41L59.4103 84.4428L59.0146 81.08L63.1687 74.5522L63.1633 74.5475C63.8904 74.5012 64.5727 74.1798 65.0714 73.6486C65.57 73.1174 65.8478 72.4162 65.8481 71.6876Z" fill="#FFB9B9"/>
<path d="M8.84007 124.465L7.49438 119.467L26.1309 111.899L28.1169 119.275L8.84007 124.465Z" fill="#FFB8B8"/>
<path d="M4.3387 127.044L0 110.93L0.203821 110.875C1.8673 110.427 3.64054 110.658 5.13351 111.518C6.62647 112.377 7.71689 113.795 8.16491 115.458L8.16502 115.458L10.8149 125.301L4.3387 127.044Z" fill="#2F2E41"/>
<path d="M34.511 123.667L30.3253 120.623L40.0747 103.029L46.2525 107.521L34.511 123.667Z" fill="#FFB8B8"/>
<path d="M32.628 128.501L19.1311 118.685L19.2552 118.515C20.2685 117.121 21.7937 116.188 23.4953 115.919C25.1969 115.65 26.9356 116.068 28.3289 117.081L28.3292 117.082L36.5726 123.077L32.628 128.501Z" fill="#2F2E41"/>
<path d="M70.092 99.0808L59.5587 88.8484C58.6395 87.9553 57.4287 87.4242 56.149 87.3528C54.8694 87.2813 53.607 87.6742 52.5939 88.4593L32.7056 110.554L34.4859 113.323L53.4758 100.465L66.3335 117.279L78.5979 111.147L70.092 99.0808Z" fill="#2F2E41"/>
<path d="M65.5424 101.257L57.8277 100.663L52.2407 99.3087C51.9252 98.8164 51.4667 98.4322 50.9268 98.2076C50.3869 97.983 49.7912 97.9288 49.2196 98.0521C48.6479 98.1754 48.1276 98.4703 47.7282 98.8975C47.3289 99.3247 47.0695 99.8637 46.985 100.442C46.9004 101.021 46.9946 101.612 47.2549 102.135C47.5153 102.659 47.9294 103.09 48.4419 103.372C48.9543 103.654 49.5406 103.772 50.1222 103.712C50.7038 103.651 51.2531 103.414 51.6963 103.033L51.6955 103.037L55.0584 104.422L69.4986 109.367L71.2789 107.982L65.5424 101.257Z" fill="#FFB9B9"/>
<path d="M84.1367 122.621L79.7847 125.39H74.6416L50.7065 116.488L15.6938 122.818L14.7048 115.301L46.7504 101.257L74.8396 110.554L84.1367 122.621Z" fill="#2F2E41"/>
<path d="M74.8395 74.5521C79.1002 74.5521 82.5542 71.0982 82.5542 66.8375C82.5542 62.5768 79.1002 59.1228 74.8395 59.1228C70.5788 59.1228 67.1249 62.5768 67.1249 66.8375C67.1249 71.0982 70.5788 74.5521 74.8395 74.5521Z" fill="#FFB9B9"/>
<path d="M94.8007 97.6387C94.8006 102.295 94.067 106.921 92.6268 111.349L92.0492 113.125L89.2798 125.785L86.3126 126.577L84.1367 123.807L79.7848 120.642L76.6198 115.499L73.9059 110.977L73.0592 109.565L70.092 94.7289L58.8168 88.3989L55.0583 87.8055L55.8496 85.6296L59.2124 81.0799L62.5752 80.6843L63.5642 79.893L64.3555 80.2886L68.7173 81.9689L82.8588 75.9941L84.9279 76.3324L92.0491 82.2668C93.8696 87.1873 94.8013 92.3922 94.8007 97.6387Z" fill="#CCCCCC"/>
<path opacity="0.1" d="M92.6424 95.9159L85.1257 100.861L73.9059 110.977L73.0593 109.565L70.6854 97.6962H71.279L77.4112 86.4211L92.6424 95.9159Z" fill="black"/>
<path d="M77.4112 85.2339L71.279 96.509L67.7184 100.465L64.5535 101.257L73.0593 110.554L85.1257 99.6741L92.6424 94.7287L77.4112 85.2339Z" fill="#CCCCCC"/>
<path d="M68.8391 61.1013L68.0032 61.4229C67.8763 61.337 67.7676 61.227 67.6833 61.099C67.5989 60.9711 67.5406 60.8278 67.5116 60.6773C67.4827 60.5269 67.4836 60.3722 67.5144 60.2221C67.5452 60.072 67.6053 59.9294 67.6912 59.8025C67.6957 59.7958 67.7003 59.7892 67.7049 59.7827L66.1603 59.7104C67.1518 58.3898 68.4125 57.2948 69.8589 56.4978C71.3054 55.7009 72.9045 55.2202 74.5506 55.0875C76.1967 54.9548 77.8522 55.1732 79.4076 55.7282C80.9629 56.2832 82.3827 57.1621 83.573 58.3069C83.6434 58.0647 84.41 58.5359 84.723 59.0137C84.8281 58.6196 85.5469 60.5249 85.8012 61.8716C85.9189 61.4232 86.3714 62.1471 85.975 62.8417C86.2262 62.805 86.3396 63.4478 86.1452 63.8058C86.42 63.6767 86.3737 64.444 86.0757 64.9567C86.4679 64.9219 86.0422 72.9994 80.1569 72.4109C79.7472 70.5283 79.8626 70.6453 79.3802 68.2245C79.1556 67.9861 78.9097 67.769 78.6642 67.5523L77.3363 66.3802C75.7922 65.0172 74.3875 63.335 72.3305 62.8256C70.9169 62.4755 70.0231 62.3965 70.7934 60.8035C70.0974 61.094 69.4474 61.5259 68.7452 61.7957C68.7546 61.5731 68.8528 61.324 68.8391 61.1013Z" fill="#2F2E41"/>
<path d="M78.6969 69.1124C79.4616 69.1124 80.0816 68.4924 80.0816 67.7277C80.0816 66.963 79.4616 66.343 78.6969 66.343C77.9321 66.343 77.3122 66.963 77.3122 67.7277C77.3122 68.4924 77.9321 69.1124 78.6969 69.1124Z" fill="#FFB9B9"/>
<path d="M14.1241 35.0243L13.7015 41.3694L20.0466 41.7919L20.4692 35.4469L14.1241 35.0243Z" fill="#E6E6E6"/>
<path d="M10.0303 38.3936L17.735 38.9067L17.2219 46.6114L9.51715 46.0983L10.0303 38.3936ZM17.3777 39.2193L10.3429 38.7509L9.87445 45.7856L16.9092 46.2541L17.3777 39.2193Z" fill="#CCCCCC"/>
<path d="M49.9811 16.2093L43.7639 17.5452L45.0998 23.7624L51.317 22.4265L49.9811 16.2093Z" fill="#E6E6E6"/>
<path d="M45.6174 13.198L47.2395 20.7475L39.69 22.3696L38.0679 14.8202L45.6174 13.198ZM46.8407 20.4898L45.3596 13.5968L38.4666 15.0779L39.9477 21.9709L46.8407 20.4898Z" fill="#CCCCCC"/>
<path d="M43.4483 46.0666L38.8072 50.4138L43.1544 55.055L47.7955 50.7077L43.4483 46.0666Z" fill="#E6E6E6"/>
<path d="M48.1293 45.4162L42.4936 50.6949L37.2148 45.0593L42.8505 39.7805L48.1293 45.4162ZM42.5091 50.2204L47.6547 45.4007L42.835 40.2551L37.6894 45.0748L42.5091 50.2204Z" fill="#CCCCCC"/>
<path d="M283.46 0H95.3112C94.6311 -7.7287e-07 93.9577 0.133948 93.3294 0.394199C92.7011 0.65445 92.1302 1.0359 91.6494 1.51679C91.1685 1.99767 90.787 2.56856 90.5268 3.19686C90.2665 3.82516 90.1326 4.49857 90.1326 5.17864V110.012C90.1326 110.692 90.2665 111.365 90.5268 111.994C90.787 112.622 91.1685 113.193 91.6494 113.674C92.1302 114.154 92.7011 114.536 93.3294 114.796C93.9577 115.056 94.6311 115.19 95.3112 115.19H283.46C284.834 115.19 286.151 114.645 287.122 113.674C288.093 112.702 288.639 111.385 288.639 110.012V5.17864C288.639 3.80518 288.093 2.48797 287.122 1.51679C286.151 0.545607 284.834 7.80443e-07 283.46 0Z" fill="#3F3D56"/>
<path d="M281.696 9.1521H97.0756V113.297H281.696V9.1521Z" fill="white"/>
<path d="M189.228 6.31173C190.274 6.31173 191.121 5.46397 191.121 4.4182C191.121 3.37242 190.274 2.52466 189.228 2.52466C188.182 2.52466 187.334 3.37242 187.334 4.4182C187.334 5.46397 188.182 6.31173 189.228 6.31173Z" fill="white"/>
<path d="M228.898 113.297H97.0756V9.15234L228.898 113.297Z" fill="#F2F2F2"/>
<path d="M125.963 105.504C135.764 105.504 143.709 97.5585 143.709 87.7575C143.709 77.9565 135.764 70.0112 125.963 70.0112C116.162 70.0112 108.217 77.9565 108.217 87.7575C108.217 97.5585 116.162 105.504 125.963 105.504Z" fill="#27AE60"/>
<path d="M129.914 101.095C125.548 101.095 121.28 99.8007 117.65 97.3751C114.019 94.9495 111.19 91.5019 109.519 87.4683C107.849 83.4347 107.411 78.9962 108.263 74.7141C109.115 70.4321 111.217 66.4987 114.305 63.4116C117.392 60.3244 121.325 58.222 125.607 57.3702C129.889 56.5185 134.328 56.9556 138.361 58.6264C142.395 60.2972 145.842 63.1265 148.268 66.7567C150.694 70.3868 151.988 74.6547 151.988 79.0207C151.988 81.9196 151.417 84.7901 150.308 87.4683C149.199 90.1465 147.573 92.58 145.523 94.6298C143.473 96.6796 141.039 98.3056 138.361 99.415C135.683 100.524 132.813 101.095 129.914 101.095ZM129.914 57.2346C125.605 57.2346 121.393 58.5123 117.81 60.9062C114.227 63.3001 111.435 66.7026 109.786 70.6835C108.137 74.6644 107.706 79.0448 108.546 83.2709C109.387 87.497 111.462 91.3789 114.509 94.4257C117.555 97.4726 121.437 99.5475 125.663 100.388C129.889 101.229 134.27 100.797 138.251 99.1484C142.232 97.4994 145.634 94.7071 148.028 91.1244C150.422 87.5417 151.7 83.3296 151.7 79.0207C151.7 76.1597 151.136 73.3267 150.041 70.6835C148.946 68.0403 147.342 65.6386 145.319 63.6156C143.296 61.5926 140.894 59.9878 138.251 58.893C135.608 57.7981 132.775 57.2346 129.914 57.2346Z" fill="#3F3D56"/>
<path d="M238.957 63.2583H221.711V66.8618H238.957V63.2583Z" fill="#3F3D56"/>
<path d="M255.273 43.7358H205.395V45.2802H255.273V43.7358Z" fill="#3F3D56"/>
<path d="M255.273 49.8035H205.395V51.3478H255.273V49.8035Z" fill="#3F3D56"/>
<path d="M255.273 55.8711H205.395V57.4155H255.273V55.8711Z" fill="#3F3D56"/>
<path d="M268.634 15.3848H261.427V22.5919H268.634V15.3848Z" fill="#27AE60"/>
<path d="M271.98 25.938H263.229V17.1865H271.98V25.938ZM263.609 25.5575H271.6V17.567H263.609L263.609 25.5575Z" fill="#CCCCCC"/>
<path d="M293.822 111.403H275.805V110.105C275.805 110.071 275.798 110.038 275.785 110.007C275.772 109.975 275.753 109.947 275.729 109.923C275.705 109.899 275.677 109.88 275.646 109.867C275.615 109.854 275.581 109.848 275.547 109.848H269.37C269.336 109.848 269.303 109.854 269.271 109.867C269.24 109.88 269.212 109.899 269.188 109.923C269.164 109.947 269.145 109.975 269.132 110.007C269.119 110.038 269.112 110.071 269.112 110.105V111.403H265.251V110.105C265.251 110.071 265.245 110.038 265.232 110.007C265.219 109.975 265.2 109.947 265.176 109.923C265.152 109.899 265.124 109.88 265.093 109.867C265.061 109.854 265.028 109.848 264.994 109.848H258.817C258.783 109.848 258.749 109.854 258.718 109.867C258.687 109.88 258.658 109.899 258.635 109.923C258.611 109.947 258.592 109.975 258.579 110.007C258.566 110.038 258.559 110.071 258.559 110.105V111.403H254.698V110.105C254.698 110.071 254.692 110.038 254.679 110.007C254.666 109.975 254.647 109.947 254.623 109.923C254.599 109.899 254.571 109.88 254.539 109.867C254.508 109.854 254.475 109.848 254.441 109.848H248.263C248.23 109.848 248.196 109.854 248.165 109.867C248.134 109.88 248.105 109.899 248.081 109.923C248.057 109.947 248.038 109.975 248.026 110.007C248.013 110.038 248.006 110.071 248.006 110.105V111.403H244.145V110.105C244.145 110.071 244.138 110.038 244.125 110.007C244.112 109.975 244.094 109.947 244.07 109.923C244.046 109.899 244.017 109.88 243.986 109.867C243.955 109.854 243.921 109.848 243.888 109.848H237.71C237.676 109.848 237.643 109.854 237.612 109.867C237.58 109.88 237.552 109.899 237.528 109.923C237.504 109.947 237.485 109.975 237.472 110.007C237.459 110.038 237.453 110.071 237.453 110.105V111.403H233.592V110.105C233.592 110.071 233.585 110.038 233.572 110.007C233.559 109.975 233.54 109.947 233.516 109.923C233.492 109.899 233.464 109.88 233.433 109.867C233.402 109.854 233.368 109.848 233.334 109.848H227.157C227.123 109.848 227.09 109.854 227.058 109.867C227.027 109.88 226.999 109.899 226.975 109.923C226.951 109.947 226.932 109.975 226.919 110.007C226.906 110.038 226.899 110.071 226.899 110.105V111.403H223.039V110.105C223.039 110.071 223.032 110.038 223.019 110.007C223.006 109.975 222.987 109.947 222.963 109.923C222.939 109.899 222.911 109.88 222.88 109.867C222.848 109.854 222.815 109.848 222.781 109.848H216.604C216.57 109.848 216.536 109.854 216.505 109.867C216.474 109.88 216.446 109.899 216.422 109.923C216.398 109.947 216.379 109.975 216.366 110.007C216.353 110.038 216.346 110.071 216.346 110.105V111.403H212.485V110.105C212.485 110.071 212.479 110.038 212.466 110.007C212.453 109.975 212.434 109.947 212.41 109.923C212.386 109.899 212.358 109.88 212.326 109.867C212.295 109.854 212.262 109.848 212.228 109.848H163.837C163.804 109.848 163.77 109.854 163.739 109.867C163.708 109.88 163.679 109.899 163.655 109.923C163.631 109.947 163.613 109.975 163.6 110.007C163.587 110.038 163.58 110.071 163.58 110.105V111.403H159.719V110.105C159.719 110.071 159.712 110.038 159.699 110.007C159.687 109.975 159.668 109.947 159.644 109.923C159.62 109.899 159.591 109.88 159.56 109.867C159.529 109.854 159.495 109.848 159.462 109.848H153.284C153.25 109.848 153.217 109.854 153.186 109.867C153.154 109.88 153.126 109.899 153.102 109.923C153.078 109.947 153.059 109.975 153.046 110.007C153.033 110.038 153.027 110.071 153.027 110.105V111.403H149.166V110.105C149.166 110.071 149.159 110.038 149.146 110.007C149.133 109.975 149.114 109.947 149.09 109.923C149.067 109.899 149.038 109.88 149.007 109.867C148.976 109.854 148.942 109.848 148.908 109.848H142.731C142.697 109.848 142.664 109.854 142.632 109.867C142.601 109.88 142.573 109.899 142.549 109.923C142.525 109.947 142.506 109.975 142.493 110.007C142.48 110.038 142.474 110.071 142.474 110.105V111.403H138.613V110.105C138.613 110.071 138.606 110.038 138.593 110.007C138.58 109.975 138.561 109.947 138.537 109.923C138.513 109.899 138.485 109.88 138.454 109.867C138.422 109.854 138.389 109.848 138.355 109.848H132.178C132.144 109.848 132.11 109.854 132.079 109.867C132.048 109.88 132.02 109.899 131.996 109.923C131.972 109.947 131.953 109.975 131.94 110.007C131.927 110.038 131.92 110.071 131.92 110.105V111.403H128.059V110.105C128.059 110.071 128.053 110.038 128.04 110.007C128.027 109.975 128.008 109.947 127.984 109.923C127.96 109.899 127.932 109.88 127.9 109.867C127.869 109.854 127.836 109.848 127.802 109.848H121.624C121.591 109.848 121.557 109.854 121.526 109.867C121.495 109.88 121.466 109.899 121.442 109.923C121.419 109.947 121.4 109.975 121.387 110.007C121.374 110.038 121.367 110.071 121.367 110.105V111.403H117.506V110.105C117.506 110.071 117.499 110.038 117.486 110.007C117.474 109.975 117.455 109.947 117.431 109.923C117.407 109.899 117.378 109.88 117.347 109.867C117.316 109.854 117.282 109.848 117.249 109.848H111.071C111.003 109.848 110.937 109.875 110.889 109.923C110.841 109.971 110.814 110.037 110.814 110.105V111.403H106.953V110.105C106.953 110.071 106.946 110.038 106.933 110.007C106.92 109.975 106.901 109.947 106.877 109.923C106.854 109.899 106.825 109.88 106.794 109.867C106.763 109.854 106.729 109.848 106.695 109.848H100.518C100.45 109.848 100.384 109.875 100.336 109.923C100.288 109.971 100.261 110.037 100.261 110.105V111.403H88.4203C86.7819 111.403 85.2107 112.054 84.0521 113.213C82.8936 114.371 82.2428 115.942 82.2428 117.581V120.374C82.2428 122.012 82.8936 123.584 84.0521 124.742C85.2107 125.901 86.7819 126.552 88.4203 126.552H293.822C295.461 126.552 297.032 125.901 298.191 124.742C299.349 123.584 300 122.012 300 120.374V117.581C300 116.769 299.84 115.966 299.53 115.217C299.219 114.467 298.764 113.786 298.191 113.213C297.617 112.639 296.936 112.184 296.186 111.873C295.437 111.563 294.634 111.403 293.822 111.403Z" fill="#3F3D56"/>
</g>
<defs>
<clipPath id="clip0_1_4">
<rect width="300" height="128.501" fill="white"/>
</clipPath>
</defs>
</svg>
