<svg width="401" height="272" viewBox="0 0 401 272" fill="none" xmlns="http://www.w3.org/2000/svg">
<path d="M359.343 265.547C350.372 272.01 338.746 272.335 327.508 271.541C325.939 271.43 324.381 271.3 322.837 271.16C322.828 271.158 322.815 271.158 322.806 271.156C322.732 271.149 322.658 271.142 322.587 271.138C322.268 271.108 321.949 271.078 321.634 271.048L321.708 271.19L321.942 271.632C321.858 271.484 321.774 271.339 321.69 271.192C321.665 271.147 321.637 271.103 321.613 271.059C318.702 265.993 315.814 260.741 315.078 254.956C314.316 248.951 316.456 242.152 321.74 239.201C322.434 238.815 323.167 238.508 323.929 238.285C324.245 238.189 324.565 238.111 324.889 238.042C326.871 237.602 328.934 237.698 330.867 238.319C332.8 238.941 334.532 240.066 335.885 241.579C337.239 243.092 338.165 244.939 338.569 246.928C338.972 248.918 338.838 250.979 338.181 252.9C342.662 248.306 341.826 240.853 340.28 234.624C338.732 228.396 336.857 221.465 340.007 215.87C341.757 212.756 344.836 210.824 348.291 210.046C348.397 210.023 348.503 210 348.609 209.981C352.726 209.147 357.006 209.897 360.594 212.08C367.2 216.244 370.594 224.137 371.695 231.869C373.469 244.312 369.543 258.199 359.343 265.547Z" fill="#F2F2F2"/>
<path d="M356.446 245.601C356.186 248.346 355.527 251.038 354.489 253.592C353.533 255.852 352.245 257.957 350.666 259.836C347.385 263.677 343.229 266.674 338.548 268.574C335.008 270.024 331.298 271.021 327.508 271.541C325.939 271.43 324.381 271.3 322.837 271.16C322.828 271.158 322.815 271.158 322.806 271.156C322.732 271.149 322.658 271.142 322.587 271.138C322.268 271.108 321.949 271.078 321.634 271.048L321.708 271.19L321.942 271.632C321.858 271.484 321.774 271.339 321.69 271.192C321.665 271.147 321.637 271.103 321.613 271.059C324.454 268.227 326.576 264.756 327.8 260.936C329.024 257.116 329.314 253.059 328.647 249.103C327.948 245.176 326.332 241.469 323.929 238.285C324.245 238.189 324.565 238.111 324.889 238.042C325.802 239.291 326.603 240.617 327.283 242.007C329.722 246.963 330.499 252.573 329.502 258.005C328.574 262.922 326.263 267.471 322.84 271.12C323.14 271.099 323.443 271.074 323.739 271.047C329.348 270.572 334.947 269.366 340.034 266.896C344.383 264.836 348.159 261.738 351.029 257.875C354.11 253.625 355.468 248.513 355.702 243.318C355.881 237.72 355.294 232.125 353.958 226.687C352.662 221.141 350.692 215.775 348.092 210.709C348.034 210.594 348.022 210.461 348.059 210.337C348.096 210.214 348.18 210.11 348.291 210.046C348.385 209.983 348.499 209.96 348.609 209.981C348.664 209.995 348.714 210.021 348.756 210.058C348.799 210.094 348.832 210.139 348.855 210.191C349.175 210.817 349.49 211.443 349.793 212.076C352.315 217.352 354.171 222.92 355.32 228.653C356.435 234.184 357.03 239.969 356.446 245.601Z" fill="white"/>
<path d="M17.1885 86.4726C16.9214 86.4723 16.6567 86.4223 16.408 86.3252C16.0056 86.1706 15.6598 85.8973 15.4165 85.5415C15.1732 85.1858 15.0439 84.7644 15.0457 84.3334V62.0092C15.0449 61.2536 14.7443 60.5291 14.21 59.9948C13.6757 59.4604 12.9513 59.1599 12.1956 59.159H7.62413C5.73534 59.1569 3.92452 58.4056 2.58895 57.07C1.25337 55.7345 0.502117 53.9237 0.5 52.0349V7.15098C0.502118 5.26219 1.25337 3.45138 2.58895 2.1158C3.92452 0.780229 5.73534 0.0289723 7.62413 0.0268555H168.874C170.763 0.0289748 172.574 0.78023 173.909 2.1158C175.245 3.45138 175.996 5.26219 175.998 7.15098V52.0349C175.996 53.9236 175.245 55.7345 173.909 57.07C172.574 58.4056 170.763 59.1569 168.874 59.159H44.412C44.017 59.1595 43.6263 59.2418 43.2647 59.4009C42.903 59.56 42.5783 59.7923 42.311 60.0833L18.7581 85.7775C18.5592 85.9962 18.3169 86.1709 18.0466 86.2906C17.7764 86.4103 17.4841 86.4723 17.1885 86.4726ZM7.62413 0.976151C5.98703 0.977999 4.41751 1.62916 3.2599 2.78676C2.1023 3.94436 1.45114 5.51388 1.4493 7.15098V52.0349C1.45115 53.672 2.1023 55.2415 3.2599 56.3991C4.41751 57.5567 5.98703 58.2078 7.62413 58.2097H12.1956C13.203 58.2108 14.1687 58.6115 14.881 59.3238C15.5933 60.0361 15.9939 61.0019 15.995 62.0092V84.3334C15.995 84.5727 16.0673 84.8064 16.2024 85.004C16.3376 85.2015 16.5292 85.3536 16.7522 85.4403C16.9753 85.5271 17.2193 85.5444 17.4524 85.4901C17.6854 85.4358 17.8967 85.3124 18.0584 85.136L41.6113 59.4417C41.9676 59.0539 42.4005 58.7442 42.8825 58.5321C43.3646 58.3201 43.8854 58.2103 44.4121 58.2097H168.874C170.511 58.2078 172.081 57.5567 173.238 56.3991C174.396 55.2415 175.047 53.672 175.049 52.0349V7.15098C175.047 5.51388 174.396 3.94436 173.238 2.78676C172.081 1.62916 170.511 0.978 168.874 0.976151H7.62413Z" fill="#CCCCCC"/>
<path d="M17.9747 20.2421C21.4176 20.2421 24.2086 17.4511 24.2086 14.0083C24.2086 10.5654 21.4176 7.77437 17.9747 7.77437C14.5318 7.77437 11.7408 10.5654 11.7408 14.0083C11.7408 17.4511 14.5318 20.2421 17.9747 20.2421Z" fill="#CCCCCC"/>
<path d="M161.601 48.5024H14.897C14.4601 48.503 14.0273 48.4173 13.6235 48.2505C13.2197 48.0836 12.8527 47.8388 12.5435 47.53C12.2344 47.2213 11.9891 46.8546 11.8218 46.4509C11.6544 46.0473 11.5683 45.6146 11.5683 45.1777C11.5683 44.7407 11.6544 44.3081 11.8218 43.9045C11.9891 43.5008 12.2344 43.1341 12.5435 42.8253C12.8527 42.5166 13.2197 42.2717 13.6235 42.1049C14.0273 41.938 14.4601 41.8524 14.897 41.853H161.601C162.038 41.8524 162.471 41.938 162.875 42.1049C163.279 42.2717 163.646 42.5166 163.955 42.8253C164.264 43.1341 164.509 43.5008 164.676 43.9045C164.844 44.3081 164.93 44.7407 164.93 45.1777C164.93 45.6146 164.844 46.0473 164.676 46.4509C164.509 46.8546 164.264 47.2213 163.955 47.53C163.646 47.8388 163.279 48.0836 162.875 48.2505C162.471 48.4173 162.038 48.503 161.601 48.5024Z" fill="#CCCCCC"/>
<path d="M113.808 34.3723H14.897C14.4601 34.3728 14.0273 34.2872 13.6235 34.1203C13.2197 33.9535 12.8527 33.7087 12.5435 33.3999C12.2344 33.0911 11.9891 32.7244 11.8218 32.3208C11.6544 31.9172 11.5683 31.4845 11.5683 31.0475C11.5683 30.6106 11.6544 30.1779 11.8218 29.7743C11.9891 29.3707 12.2344 29.004 12.5435 28.6952C12.8527 28.3864 13.2197 28.1416 13.6235 27.9748C14.0273 27.8079 14.4601 27.7223 14.897 27.7228H113.808C114.245 27.7223 114.678 27.8079 115.082 27.9748C115.485 28.1416 115.852 28.3864 116.162 28.6952C116.471 29.004 116.716 29.3707 116.883 29.7743C117.051 30.1779 117.137 30.6106 117.137 31.0475C117.137 31.4845 117.051 31.9172 116.883 32.3208C116.716 32.7244 116.471 33.0911 116.162 33.3999C115.852 33.7087 115.485 33.9535 115.082 34.1203C114.678 34.2872 114.245 34.3728 113.808 34.3723Z" fill="#CCCCCC"/>
<path d="M17.1885 244.813C16.9215 244.813 16.6568 244.763 16.408 244.666C16.0056 244.511 15.6599 244.238 15.4166 243.882C15.1733 243.526 15.0439 243.105 15.0457 242.674V220.35C15.0449 219.594 14.7443 218.87 14.21 218.336C13.6757 217.801 12.9513 217.501 12.1956 217.5H7.62414C5.73535 217.498 3.92454 216.746 2.58896 215.411C1.25339 214.075 0.50213 212.264 0.500008 210.376V165.492C0.502126 163.603 1.25338 161.792 2.58896 160.457C3.92453 159.121 5.73535 158.37 7.62414 158.368H168.874C170.763 158.37 172.574 159.121 173.909 160.457C175.245 161.792 175.996 163.603 175.998 165.492V210.376C175.996 212.264 175.245 214.075 173.909 215.411C172.574 216.746 170.763 217.498 168.874 217.5H44.4121C44.017 217.5 43.6263 217.583 43.2647 217.742C42.903 217.901 42.5783 218.133 42.311 218.424L18.7581 244.118C18.5592 244.337 18.3169 244.512 18.0467 244.631C17.7764 244.751 17.4841 244.813 17.1885 244.813ZM7.62414 159.317C5.98704 159.319 4.41752 159.97 3.25991 161.127C2.10231 162.285 1.45115 163.855 1.4493 165.492V210.376C1.45115 212.013 2.10231 213.582 3.25991 214.74C4.41752 215.897 5.98704 216.549 7.62414 216.55H12.1956C13.203 216.552 14.1687 216.952 14.881 217.665C15.5933 218.377 15.9939 219.343 15.995 220.35V242.674C15.995 242.913 16.0673 243.147 16.2024 243.345C16.3376 243.542 16.5292 243.694 16.7522 243.781C16.9753 243.868 17.2193 243.885 17.4524 243.831C17.6854 243.777 17.8967 243.653 18.0584 243.477L41.6113 217.783C41.9676 217.395 42.4005 217.085 42.8825 216.873C43.3646 216.661 43.8854 216.551 44.4121 216.55H168.874C170.511 216.549 172.081 215.897 173.238 214.74C174.396 213.582 175.047 212.013 175.049 210.376V165.492C175.047 163.855 174.396 162.285 173.238 161.128C172.081 159.97 170.511 159.319 168.874 159.317L7.62414 159.317Z" fill="#CCCCCC"/>
<path d="M255.311 162.526C255.016 162.526 254.724 162.464 254.453 162.344C254.183 162.224 253.941 162.05 253.742 161.831L230.189 136.137C229.922 135.846 229.597 135.614 229.235 135.454C228.874 135.295 228.483 135.213 228.088 135.212H103.626C101.737 135.21 99.9264 134.459 98.5908 133.124C97.2553 131.788 96.504 129.977 96.5019 128.088V83.2045C96.504 81.3157 97.2553 79.5049 98.5908 78.1693C99.9264 76.8337 101.737 76.0825 103.626 76.0804H264.876C266.765 76.0825 268.575 76.8337 269.911 78.1693C271.247 79.5049 271.998 81.3157 272 83.2045V128.088C271.998 129.977 271.247 131.788 269.911 133.124C268.575 134.459 266.765 135.21 264.876 135.212H260.304C259.549 135.213 258.824 135.514 258.29 136.048C257.756 136.583 257.455 137.307 257.454 138.063V160.387C257.456 160.818 257.327 161.239 257.083 161.595C256.84 161.951 256.494 162.224 256.092 162.378C255.843 162.476 255.579 162.526 255.311 162.526ZM103.626 77.0296C101.989 77.0315 100.419 77.6827 99.2618 78.8403C98.1042 79.9979 97.453 81.5674 97.4512 83.2045V128.088C97.453 129.725 98.1042 131.295 99.2618 132.453C100.419 133.61 101.989 134.261 103.626 134.263H228.088C228.615 134.264 229.135 134.374 229.617 134.586C230.099 134.798 230.532 135.107 230.889 135.495L254.442 161.189C254.603 161.366 254.815 161.489 255.048 161.544C255.281 161.598 255.525 161.581 255.748 161.494C255.971 161.407 256.162 161.255 256.298 161.057C256.433 160.86 256.505 160.626 256.505 160.387V138.063C256.506 137.055 256.907 136.09 257.619 135.377C258.331 134.665 259.297 134.264 260.304 134.263H264.876C266.513 134.261 268.082 133.61 269.24 132.453C270.398 131.295 271.049 129.725 271.051 128.088V83.2045C271.049 81.5674 270.398 79.9979 269.24 78.8403C268.082 77.6827 266.513 77.0315 264.876 77.0297L103.626 77.0296Z" fill="#3F3D56"/>
<path d="M17.9747 178.583C21.4176 178.583 24.2086 175.792 24.2086 172.349C24.2086 168.906 21.4176 166.115 17.9747 166.115C14.5318 166.115 11.7408 168.906 11.7408 172.349C11.7408 175.792 14.5318 178.583 17.9747 178.583Z" fill="#CCCCCC"/>
<path d="M161.601 206.843H14.897C14.4601 206.844 14.0273 206.758 13.6235 206.591C13.2197 206.424 12.8527 206.18 12.5435 205.871C12.2344 205.562 11.9891 205.195 11.8218 204.792C11.6544 204.388 11.5683 203.955 11.5683 203.518C11.5683 203.081 11.6544 202.649 11.8218 202.245C11.9891 201.842 12.2344 201.475 12.5435 201.166C12.8527 200.857 13.2197 200.612 13.6235 200.446C14.0273 200.279 14.4601 200.193 14.897 200.194H161.601C162.483 200.194 163.329 200.544 163.952 201.167C164.576 201.791 164.926 202.637 164.926 203.518C164.926 204.4 164.576 205.246 163.952 205.869C163.329 206.493 162.483 206.843 161.601 206.843Z" fill="#CCCCCC"/>
<path d="M113.808 192.713H14.897C14.4601 192.714 14.0273 192.628 13.6235 192.461C13.2197 192.294 12.8527 192.049 12.5435 191.741C12.2344 191.432 11.9891 191.065 11.8218 190.662C11.6544 190.258 11.5683 189.825 11.5683 189.388C11.5683 188.951 11.6544 188.519 11.8218 188.115C11.9891 187.711 12.2344 187.345 12.5435 187.036C12.8527 186.727 13.2197 186.482 13.6235 186.315C14.0273 186.149 14.4601 186.063 14.897 186.064H113.808C114.245 186.063 114.678 186.149 115.082 186.315C115.485 186.482 115.852 186.727 116.162 187.036C116.471 187.345 116.716 187.711 116.883 188.115C117.051 188.519 117.137 188.951 117.137 189.388C117.137 189.825 117.051 190.258 116.883 190.662C116.716 191.065 116.471 191.432 116.162 191.741C115.852 192.049 115.485 192.294 115.082 192.461C114.678 192.628 114.245 192.714 113.808 192.713Z" fill="#CCCCCC"/>
<path d="M113.977 95.88C117.419 95.88 120.21 93.089 120.21 89.6461C120.21 86.2032 117.419 83.4122 113.977 83.4122C110.534 83.4122 107.743 86.2032 107.743 89.6461C107.743 93.089 110.534 95.88 113.977 95.88Z" fill="#3F3D56"/>
<path d="M257.603 124.14H110.899C110.017 124.14 109.171 123.79 108.548 123.166C107.924 122.543 107.574 121.697 107.574 120.816C107.574 119.934 107.924 119.088 108.548 118.465C109.171 117.841 110.017 117.491 110.899 117.491H257.603C258.485 117.491 259.33 117.841 259.954 118.465C260.577 119.088 260.928 119.934 260.928 120.816C260.928 121.697 260.577 122.543 259.954 123.166C259.33 123.79 258.485 124.14 257.603 124.14Z" fill="#27AE60"/>
<path d="M209.81 110.01H110.899C110.462 110.011 110.029 109.925 109.625 109.758C109.222 109.591 108.855 109.347 108.545 109.038C108.236 108.729 107.991 108.362 107.824 107.959C107.656 107.555 107.57 107.122 107.57 106.685C107.57 106.248 107.656 105.816 107.824 105.412C107.991 105.008 108.236 104.642 108.545 104.333C108.855 104.024 109.222 103.779 109.625 103.613C110.029 103.446 110.462 103.36 110.899 103.361H209.81C210.247 103.36 210.68 103.446 211.083 103.613C211.487 103.779 211.854 104.024 212.163 104.333C212.473 104.642 212.718 105.008 212.885 105.412C213.052 105.816 213.139 106.248 213.139 106.685C213.139 107.122 213.052 107.555 212.885 107.959C212.718 108.362 212.473 108.729 212.163 109.038C211.854 109.347 211.487 109.591 211.083 109.758C210.68 109.925 210.247 110.011 209.81 110.01Z" fill="#27AE60"/>
<path d="M257.539 171.07C257.682 170.387 257.972 169.744 258.39 169.185C258.808 168.626 259.344 168.166 259.959 167.837C260.574 167.508 261.254 167.317 261.951 167.279C262.647 167.241 263.344 167.356 263.991 167.616L275.126 154.821L277.491 163.312L266.555 174.161C266.046 175.219 265.166 176.054 264.082 176.508C262.998 176.961 261.786 177.001 260.674 176.62C259.563 176.239 258.63 175.464 258.052 174.441C257.474 173.418 257.292 172.219 257.539 171.07Z" fill="#FFB8B8"/>
<path d="M318.652 111.029C325.09 111.029 330.31 105.809 330.31 99.371C330.31 92.9325 325.09 87.7131 318.652 87.7131C312.213 87.7131 306.994 92.9325 306.994 99.371C306.994 105.809 312.213 111.029 318.652 111.029Z" fill="#FFB8B8"/>
<path d="M304.956 259.836L299.138 259.836L296.369 237.391L304.958 237.391L304.956 259.836Z" fill="#FFB8B8"/>
<path d="M306.44 265.477L287.677 265.476V265.239C287.677 264.28 287.866 263.33 288.233 262.444C288.6 261.558 289.138 260.753 289.816 260.075C290.495 259.397 291.3 258.859 292.186 258.492C293.072 258.125 294.021 257.936 294.981 257.936L306.441 257.936L306.44 265.477Z" fill="#2F2E41"/>
<path d="M322.518 266.007L316.7 266.006L315.894 244.097L322.52 243.562L322.518 266.007Z" fill="#FFB8B8"/>
<path d="M324.002 271.647L305.239 271.647V271.409C305.239 270.45 305.428 269.501 305.795 268.615C306.162 267.729 306.7 266.923 307.378 266.245C308.057 265.567 308.862 265.029 309.748 264.662C310.634 264.295 311.583 264.106 312.543 264.106L324.003 264.107L324.002 271.647Z" fill="#2F2E41"/>
<path d="M320.863 261.911L316.332 261.377C315.818 261.315 315.344 261.07 314.997 260.685C314.65 260.301 314.454 259.804 314.446 259.287L313.597 200.269C313.594 200.102 313.533 199.942 313.424 199.815C313.315 199.689 313.165 199.605 313 199.577C312.835 199.55 312.666 199.582 312.522 199.667C312.379 199.752 312.269 199.885 312.214 200.042L305.927 217.794L306.376 251.067C306.384 251.617 306.18 252.148 305.806 252.55C305.432 252.953 304.917 253.196 304.369 253.228L298.453 253.48C297.912 253.51 297.379 253.335 296.962 252.99C296.544 252.645 296.272 252.154 296.201 251.617L293.111 213.977L293.109 213.953L297.798 174.643L333.008 177.191L323.234 260.04C323.172 260.559 322.922 261.037 322.532 261.385C322.141 261.732 321.637 261.925 321.114 261.926C321.03 261.926 320.947 261.921 320.863 261.911Z" fill="#2F2E41"/>
<path d="M297.948 178.128C297.632 177.959 297.364 177.713 297.168 177.413C296.973 177.113 296.857 176.768 296.83 176.411C296.83 176.411 299.997 156.72 301.157 156.351L298.618 135.294C298.314 132.725 298.526 130.122 299.242 127.637C299.957 125.152 301.162 122.835 302.786 120.822C304.349 118.868 306.292 117.252 308.497 116.071C310.703 114.89 313.124 114.167 315.616 113.948C315.971 113.916 316.324 113.891 316.675 113.874C319.679 113.713 322.678 114.28 325.416 115.527C328.154 116.773 330.55 118.662 332.402 121.033C334.323 123.424 335.637 126.244 336.234 129.253C336.83 132.262 336.691 135.37 335.829 138.313L334.405 143.268V177.897C334.403 178.235 334.323 178.568 334.169 178.869C334.016 179.17 333.794 179.431 333.521 179.631C329.087 182.885 324.077 184.035 319.208 184.035C309.995 184.035 301.287 179.915 297.948 178.128Z" fill="#27AE60"/>
<path d="M270.613 171.791L264.489 167.212C264.249 167.032 264.049 166.804 263.903 166.542C263.757 166.28 263.667 165.99 263.641 165.691C263.614 165.393 263.65 165.092 263.748 164.808C263.845 164.524 264.001 164.264 264.206 164.045L300.689 124.898C301.86 123.653 303.439 122.868 305.139 122.688C306.839 122.507 308.548 122.942 309.954 123.913C310.812 124.511 311.527 125.29 312.048 126.196C312.57 127.101 312.886 128.11 312.973 129.152C313.06 130.193 312.917 131.241 312.553 132.22C312.189 133.2 311.614 134.087 310.868 134.819L273.388 171.605C273.059 171.931 272.632 172.141 272.172 172.202C271.713 172.262 271.246 172.171 270.843 171.941C270.763 171.896 270.687 171.846 270.613 171.791Z" fill="#27AE60"/>
<path d="M317.484 166.608C317.752 165.964 318.157 165.386 318.673 164.915C319.188 164.444 319.8 164.092 320.466 163.884C321.132 163.676 321.835 163.616 322.527 163.708C323.218 163.801 323.881 164.045 324.469 164.421L337.8 153.935L338.535 162.718L325.763 171.33C325.065 172.274 324.044 172.93 322.895 173.173C321.745 173.416 320.547 173.228 319.526 172.646C318.506 172.064 317.734 171.128 317.358 170.015C316.981 168.902 317.026 167.69 317.484 166.608Z" fill="#FFB8B8"/>
<path d="M329.416 170.702C329.063 170.592 328.745 170.392 328.494 170.122C328.242 169.851 328.065 169.52 327.981 169.16L326.635 163.504C326.536 163.102 326.558 162.681 326.697 162.291C326.836 161.902 327.087 161.562 327.418 161.315L336.479 151.516L323.151 130.965C322.142 129.723 321.574 128.182 321.534 126.582C321.495 124.983 321.986 123.415 322.932 122.125C323.686 121.096 324.698 120.285 325.867 119.774C327.035 119.263 328.318 119.07 329.585 119.215C330.851 119.359 332.058 119.835 333.081 120.596C334.105 121.357 334.909 122.374 335.413 123.546L347.803 147.663C349.035 150.059 349.342 152.824 348.666 155.432C347.99 158.04 346.378 160.309 344.138 161.805L331.476 170.263C331.088 170.61 330.586 170.802 330.066 170.803C329.846 170.803 329.626 170.768 329.416 170.702Z" fill="#27AE60"/>
<path d="M327.29 109.793C327.015 109.958 326.706 110.057 326.387 110.083C326.068 110.11 325.747 110.062 325.449 109.944C325.151 109.827 324.884 109.642 324.669 109.405C324.454 109.167 324.296 108.884 324.208 108.575L324.201 108.546C323.963 107.576 324.151 106.561 324.212 105.564C324.273 104.568 324.17 103.474 323.488 102.745C322.215 101.386 319.969 102.122 318.138 101.786C317.065 101.553 316.114 100.937 315.463 100.053C314.812 99.1689 314.505 98.078 314.6 96.9843C314.625 96.7771 314.665 96.5695 314.71 96.3621C314.821 95.8365 314.809 95.2922 314.675 94.7719C314.541 94.2516 314.288 93.7694 313.936 93.3633C313.584 92.9573 313.143 92.6382 312.647 92.4314C312.151 92.2245 311.614 92.1354 311.078 92.171C309.23 92.2866 307.238 92.8573 305.701 91.4963C305.137 90.9593 304.744 90.2681 304.571 89.5092C304.398 88.7502 304.452 87.9569 304.727 87.2285C305.586 84.703 308.048 83.3702 310.486 82.6316C313.502 81.7426 316.679 81.5369 319.785 82.0295C322.89 82.522 325.847 83.7005 328.44 85.4791C329.989 86.5583 331.437 87.917 332.104 89.6828C332.771 91.4485 332.466 93.6824 330.989 94.8583C332.145 96.0691 332.963 97.5623 333.36 99.1885C333.757 100.815 333.719 102.517 333.251 104.124C332.531 106.487 329.048 108.769 327.29 109.793Z" fill="#2F2E41"/>
<path d="M400.5 271.525C400.5 271.651 400.45 271.772 400.361 271.861C400.272 271.95 400.151 272 400.025 272H219.185C219.059 272 218.938 271.95 218.849 271.861C218.76 271.772 218.71 271.651 218.71 271.525C218.71 271.4 218.76 271.279 218.849 271.19C218.938 271.101 219.059 271.051 219.185 271.051H400.025C400.151 271.051 400.272 271.101 400.361 271.19C400.45 271.279 400.5 271.4 400.5 271.525Z" fill="#3F3D56"/>
</svg>
