<svg width="200" height="146" viewBox="0 0 200 146" fill="none" xmlns="http://www.w3.org/2000/svg">
<g clip-path="url(#clip0_6_48)">
<path d="M116.5 25.9126C120.248 25.9126 123.287 22.874 123.287 19.1256C123.287 15.3773 120.248 12.3386 116.5 12.3386C112.752 12.3386 109.713 15.3773 109.713 19.1256C109.713 22.874 112.752 25.9126 116.5 25.9126Z" fill="#F2F2F2"/>
<path d="M169.149 126.639C179.237 118.956 184.055 106.044 181.039 93.7266C180.964 93.4206 180.884 93.1153 180.801 92.8106C178.801 85.4993 173.854 78.5505 166.643 76.2144C160.588 74.2528 153.979 75.7612 147.663 74.9812C135.263 73.4499 125.65 63.4172 118.886 52.9128C112.122 42.4083 106.924 30.6502 97.9355 21.972C83.1202 7.66746 58.9528 4.58769 40.5839 13.8989C22.2151 23.2101 10.5144 43.8677 11.0134 64.4556C11.5124 85.0435 23.7346 104.727 41.4841 115.17C48.0046 119.007 55.5462 121.725 63.0515 120.774C69.5638 119.948 75.4811 116.449 81.9628 115.41C92.1534 113.777 102.279 118.385 111.093 123.754C119.907 129.123 128.421 135.487 138.437 137.976C148.163 140.393 160.212 133.446 169.149 126.639Z" fill="#F2F2F2"/>
<path d="M154.654 14.3312C154.433 14.1838 154.21 14.044 153.988 13.9016C147.596 9.81321 140.744 6.49182 133.575 4.00609L131.912 26.9389H121.374V0.658438C120.71 0.521177 120.042 0.391541 119.373 0.269531V26.9389H106.849C99.9548 26.9389 93.3427 24.2001 88.4675 19.3249C83.5924 14.4498 80.8535 7.83766 80.8535 0.943158C80.1825 1.08805 79.5165 1.24308 78.8505 1.4083V26.9389H68.65L67.0664 5.07114C59.6987 7.89677 52.7041 11.6126 46.2382 16.1359C46.1264 16.2122 46.0146 16.291 45.9053 16.3672C45.3435 16.7612 44.7894 17.1629 44.2378 17.5696V105.058H74.3006L73.7693 97.6997L70.8462 57.2966H129.714L126.79 97.6997L126.259 105.058H155.989V15.2158C155.547 14.9158 155.102 14.621 154.654 14.3312ZM78.8506 50.6241H70.3632L68.7949 28.9419H78.8506V50.6241ZM119.373 50.6241H105.118V50.1945C105.118 49.988 105.078 49.7836 104.999 49.5928C104.919 49.402 104.803 49.2288 104.657 49.0829C104.511 48.937 104.338 48.8213 104.147 48.7425C103.956 48.6637 103.751 48.6233 103.545 48.6237H97.3478C97.1415 48.6236 96.9372 48.6642 96.7465 48.7431C96.5559 48.822 96.3827 48.9377 96.2368 49.0836C96.091 49.2295 95.9752 49.4027 95.8963 49.5933C95.8174 49.7839 95.7768 49.9882 95.7769 50.1945V50.6241H80.8536V28.9419H119.373V50.6241ZM121.374 50.6241V28.9419H131.767L130.199 50.6241H121.374Z" fill="#3F3D56"/>
<path d="M0 110.661C2.20819 113.277 4.5966 115.736 7.14776 118.02L192.852 118.274C195.403 115.99 197.792 113.532 200 110.915L0 110.661Z" fill="#3F3D56"/>
<path d="M125.932 87.0979V108.883C125.932 109.16 126.043 109.427 126.239 109.623C126.435 109.819 126.702 109.93 126.979 109.93H159.262C159.54 109.93 159.806 109.819 160.002 109.623C160.199 109.427 160.309 109.16 160.309 108.883V87.0979C160.308 86.8205 160.198 86.5547 160.002 86.3586C159.805 86.1626 159.54 86.0524 159.262 86.052H126.979C126.702 86.0524 126.436 86.1626 126.24 86.3587C126.043 86.5547 125.933 86.8205 125.932 87.0979Z" fill="#3F3D56"/>
<path d="M126.689 87.3688V108.614C126.69 108.762 126.749 108.904 126.854 109.009C126.959 109.114 127.101 109.173 127.249 109.174H158.993C159.142 109.173 159.284 109.114 159.389 109.009C159.494 108.904 159.553 108.762 159.553 108.614V87.3688C159.553 87.2203 159.494 87.0779 159.389 86.9728C159.284 86.8676 159.142 86.8084 158.993 86.8081H127.249C127.101 86.8084 126.958 86.8676 126.853 86.9728C126.748 87.0779 126.689 87.2203 126.689 87.3688Z" fill="#27AE60"/>
<path d="M125.257 113.131C125.316 113.206 125.392 113.265 125.477 113.306C125.563 113.347 125.656 113.368 125.751 113.368H160.319C160.413 113.368 160.507 113.347 160.592 113.306C160.677 113.265 160.752 113.206 160.812 113.132C160.872 113.059 160.914 112.973 160.936 112.881C160.958 112.789 160.96 112.694 160.941 112.601L160.404 110.053C160.382 109.949 160.334 109.852 160.265 109.771C160.195 109.69 160.107 109.628 160.008 109.59C159.936 109.562 159.859 109.548 159.782 109.548H126.286C126.209 109.548 126.132 109.562 126.06 109.59C125.961 109.628 125.872 109.69 125.803 109.771C125.734 109.852 125.686 109.949 125.664 110.053L125.127 112.601C125.108 112.694 125.11 112.789 125.133 112.881C125.155 112.973 125.198 113.058 125.257 113.131Z" fill="#2F2E41"/>
<path d="M158.596 110.646H159.413C159.481 110.646 159.537 110.59 159.537 110.521V110.131C159.537 110.062 159.481 110.007 159.413 110.007H158.596C158.528 110.007 158.472 110.062 158.472 110.131V110.521C158.472 110.59 158.528 110.646 158.596 110.646Z" fill="#3F3D56"/>
<path d="M156.467 110.646H157.283C157.352 110.646 157.407 110.59 157.407 110.521V110.131C157.407 110.062 157.352 110.007 157.283 110.007H156.467C156.398 110.007 156.343 110.062 156.343 110.131V110.521C156.343 110.59 156.398 110.646 156.467 110.646Z" fill="#3F3D56"/>
<path d="M154.337 110.646H155.154C155.222 110.646 155.278 110.59 155.278 110.521V110.131C155.278 110.062 155.222 110.007 155.154 110.007H154.337C154.269 110.007 154.213 110.062 154.213 110.131V110.521C154.213 110.59 154.269 110.646 154.337 110.646Z" fill="#3F3D56"/>
<path d="M152.208 110.646H153.024C153.093 110.646 153.148 110.59 153.148 110.521V110.131C153.148 110.062 153.093 110.007 153.024 110.007H152.208C152.139 110.007 152.084 110.062 152.084 110.131V110.521C152.084 110.59 152.139 110.646 152.208 110.646Z" fill="#3F3D56"/>
<path d="M150.078 110.646H150.895C150.963 110.646 151.019 110.59 151.019 110.521V110.131C151.019 110.062 150.963 110.007 150.895 110.007H150.078C150.01 110.007 149.954 110.062 149.954 110.131V110.521C149.954 110.59 150.01 110.646 150.078 110.646Z" fill="#3F3D56"/>
<path d="M147.949 110.646H148.766C148.834 110.646 148.89 110.59 148.89 110.521V110.131C148.89 110.062 148.834 110.007 148.766 110.007H147.949C147.881 110.007 147.825 110.062 147.825 110.131V110.521C147.825 110.59 147.881 110.646 147.949 110.646Z" fill="#3F3D56"/>
<path d="M145.82 110.646H146.636C146.705 110.646 146.76 110.59 146.76 110.521V110.131C146.76 110.062 146.705 110.007 146.636 110.007H145.82C145.751 110.007 145.696 110.062 145.696 110.131V110.521C145.696 110.59 145.751 110.646 145.82 110.646Z" fill="#3F3D56"/>
<path d="M143.691 110.646H144.507C144.576 110.646 144.631 110.59 144.631 110.521V110.131C144.631 110.062 144.576 110.007 144.507 110.007H143.691C143.622 110.007 143.567 110.062 143.567 110.131V110.521C143.567 110.59 143.622 110.646 143.691 110.646Z" fill="#3F3D56"/>
<path d="M141.561 110.646H142.378C142.446 110.646 142.502 110.59 142.502 110.521V110.131C142.502 110.062 142.446 110.007 142.378 110.007H141.561C141.493 110.007 141.437 110.062 141.437 110.131V110.521C141.437 110.59 141.493 110.646 141.561 110.646Z" fill="#3F3D56"/>
<path d="M139.432 110.646H140.248C140.317 110.646 140.373 110.59 140.373 110.521V110.131C140.373 110.062 140.317 110.007 140.248 110.007H139.432C139.363 110.007 139.308 110.062 139.308 110.131V110.521C139.308 110.59 139.363 110.646 139.432 110.646Z" fill="#3F3D56"/>
<path d="M137.303 110.646H138.119C138.188 110.646 138.243 110.59 138.243 110.521V110.131C138.243 110.062 138.188 110.007 138.119 110.007H137.303C137.234 110.007 137.179 110.062 137.179 110.131V110.521C137.179 110.59 137.234 110.646 137.303 110.646Z" fill="#3F3D56"/>
<path d="M135.173 110.646H135.99C136.058 110.646 136.114 110.59 136.114 110.521V110.131C136.114 110.062 136.058 110.007 135.99 110.007H135.173C135.105 110.007 135.049 110.062 135.049 110.131V110.521C135.049 110.59 135.105 110.646 135.173 110.646Z" fill="#3F3D56"/>
<path d="M133.044 110.646H133.86C133.929 110.646 133.984 110.59 133.984 110.521V110.131C133.984 110.062 133.929 110.007 133.86 110.007H133.044C132.975 110.007 132.92 110.062 132.92 110.131V110.521C132.92 110.59 132.975 110.646 133.044 110.646Z" fill="#3F3D56"/>
<path d="M130.914 110.646H131.731C131.799 110.646 131.855 110.59 131.855 110.521V110.131C131.855 110.062 131.799 110.007 131.731 110.007H130.914C130.846 110.007 130.79 110.062 130.79 110.131V110.521C130.79 110.59 130.846 110.646 130.914 110.646Z" fill="#3F3D56"/>
<path d="M128.785 110.646H129.602C129.671 110.646 129.726 110.59 129.726 110.521V110.131C129.726 110.062 129.671 110.007 129.602 110.007H128.785C128.717 110.007 128.661 110.062 128.661 110.131V110.521C128.661 110.59 128.717 110.646 128.785 110.646Z" fill="#3F3D56"/>
<path d="M126.656 110.646H127.473C127.541 110.646 127.597 110.59 127.597 110.521V110.131C127.597 110.062 127.541 110.007 127.473 110.007H126.656C126.588 110.007 126.532 110.062 126.532 110.131V110.521C126.532 110.59 126.588 110.646 126.656 110.646Z" fill="#3F3D56"/>
<path d="M158.621 111.71H159.437C159.506 111.71 159.562 111.655 159.562 111.586V111.195C159.562 111.127 159.506 111.071 159.437 111.071H158.621C158.552 111.071 158.497 111.127 158.497 111.195V111.586C158.497 111.655 158.552 111.71 158.621 111.71Z" fill="#3F3D56"/>
<path d="M156.492 111.71H157.308C157.377 111.71 157.432 111.655 157.432 111.586V111.195C157.432 111.127 157.377 111.071 157.308 111.071H156.492C156.423 111.071 156.367 111.127 156.367 111.195V111.586C156.367 111.655 156.423 111.71 156.492 111.71Z" fill="#3F3D56"/>
<path d="M154.362 111.71H155.179C155.247 111.71 155.303 111.655 155.303 111.586V111.195C155.303 111.127 155.247 111.071 155.179 111.071H154.362C154.294 111.071 154.238 111.127 154.238 111.195V111.586C154.238 111.655 154.294 111.71 154.362 111.71Z" fill="#3F3D56"/>
<path d="M152.233 111.71H153.05C153.118 111.71 153.174 111.655 153.174 111.586V111.195C153.174 111.127 153.118 111.071 153.05 111.071H152.233C152.165 111.071 152.109 111.127 152.109 111.195V111.586C152.109 111.655 152.165 111.71 152.233 111.71Z" fill="#3F3D56"/>
<path d="M150.104 111.71H150.92C150.989 111.71 151.044 111.655 151.044 111.586V111.195C151.044 111.127 150.989 111.071 150.92 111.071H150.104C150.035 111.071 149.98 111.127 149.98 111.195V111.586C149.98 111.655 150.035 111.71 150.104 111.71Z" fill="#3F3D56"/>
<path d="M147.974 111.71H148.791C148.859 111.71 148.915 111.655 148.915 111.586V111.195C148.915 111.127 148.859 111.071 148.791 111.071H147.974C147.906 111.071 147.85 111.127 147.85 111.195V111.586C147.85 111.655 147.906 111.71 147.974 111.71Z" fill="#3F3D56"/>
<path d="M145.845 111.71H146.662C146.73 111.71 146.786 111.655 146.786 111.586V111.195C146.786 111.127 146.73 111.071 146.662 111.071H145.845C145.777 111.071 145.721 111.127 145.721 111.195V111.586C145.721 111.655 145.777 111.71 145.845 111.71Z" fill="#3F3D56"/>
<path d="M143.716 111.71H144.532C144.601 111.71 144.656 111.655 144.656 111.586V111.195C144.656 111.127 144.601 111.071 144.532 111.071H143.716C143.647 111.071 143.592 111.127 143.592 111.195V111.586C143.592 111.655 143.647 111.71 143.716 111.71Z" fill="#3F3D56"/>
<path d="M141.586 111.71H142.403C142.471 111.71 142.527 111.655 142.527 111.586V111.195C142.527 111.127 142.471 111.071 142.403 111.071H141.586C141.518 111.071 141.462 111.127 141.462 111.195V111.586C141.462 111.655 141.518 111.71 141.586 111.71Z" fill="#3F3D56"/>
<path d="M139.457 111.71H140.273C140.342 111.71 140.397 111.655 140.397 111.586V111.195C140.397 111.127 140.342 111.071 140.273 111.071H139.457C139.388 111.071 139.333 111.127 139.333 111.195V111.586C139.333 111.655 139.388 111.71 139.457 111.71Z" fill="#3F3D56"/>
<path d="M137.328 111.71H138.144C138.213 111.71 138.269 111.655 138.269 111.586V111.195C138.269 111.127 138.213 111.071 138.144 111.071H137.328C137.259 111.071 137.204 111.127 137.204 111.195V111.586C137.204 111.655 137.259 111.71 137.328 111.71Z" fill="#3F3D56"/>
<path d="M135.199 111.71H136.015C136.084 111.71 136.139 111.655 136.139 111.586V111.195C136.139 111.127 136.084 111.071 136.015 111.071H135.199C135.13 111.071 135.075 111.127 135.075 111.195V111.586C135.075 111.655 135.13 111.71 135.199 111.71Z" fill="#3F3D56"/>
<path d="M133.069 111.71H133.886C133.954 111.71 134.01 111.655 134.01 111.586V111.195C134.01 111.127 133.954 111.071 133.886 111.071H133.069C133.001 111.071 132.945 111.127 132.945 111.195V111.586C132.945 111.655 133.001 111.71 133.069 111.71Z" fill="#3F3D56"/>
<path d="M130.94 111.71H131.756C131.825 111.71 131.88 111.655 131.88 111.586V111.195C131.88 111.127 131.825 111.071 131.756 111.071H130.94C130.871 111.071 130.816 111.127 130.816 111.195V111.586C130.816 111.655 130.871 111.71 130.94 111.71Z" fill="#3F3D56"/>
<path d="M128.81 111.71H129.627C129.695 111.71 129.751 111.655 129.751 111.586V111.195C129.751 111.127 129.695 111.071 129.627 111.071H128.81C128.742 111.071 128.686 111.127 128.686 111.195V111.586C128.686 111.655 128.742 111.71 128.81 111.71Z" fill="#3F3D56"/>
<path d="M126.681 111.71H127.497C127.566 111.71 127.622 111.655 127.622 111.586V111.195C127.622 111.127 127.566 111.071 127.497 111.071H126.681C126.612 111.071 126.557 111.127 126.557 111.195V111.586C126.557 111.655 126.612 111.71 126.681 111.71Z" fill="#3F3D56"/>
<path d="M140.948 112.988H149.217C149.285 112.988 149.341 112.932 149.341 112.864V112.473C149.341 112.405 149.285 112.349 149.217 112.349H140.948C140.879 112.349 140.824 112.405 140.824 112.473V112.864C140.824 112.932 140.879 112.988 140.948 112.988Z" fill="#3F3D56"/>
<path d="M132.187 91.4561H131.464C131.245 91.4561 131.067 91.6337 131.067 91.8529C131.067 92.072 131.245 92.2497 131.464 92.2497H132.187C132.406 92.2497 132.583 92.072 132.583 91.8529C132.583 91.6337 132.406 91.4561 132.187 91.4561Z" fill="white"/>
<path d="M140.454 91.4561H139.731C139.512 91.4561 139.334 91.6337 139.334 91.8529C139.334 92.072 139.512 92.2497 139.731 92.2497H140.454C140.673 92.2497 140.85 92.072 140.85 91.8529C140.85 91.6337 140.673 91.4561 140.454 91.4561Z" fill="white"/>
<path d="M142.796 91.4561H142.073C141.854 91.4561 141.676 91.6337 141.676 91.8529C141.676 92.072 141.854 92.2497 142.073 92.2497H142.796C143.015 92.2497 143.193 92.072 143.193 91.8529C143.193 91.6337 143.015 91.4561 142.796 91.4561Z" fill="white"/>
<path d="M138.205 91.3899H133.713C133.494 91.3899 133.316 91.5675 133.316 91.7867C133.316 92.0058 133.494 92.1835 133.713 92.1835H138.205C138.424 92.1835 138.602 92.0058 138.602 91.7867C138.602 91.5675 138.424 91.3899 138.205 91.3899Z" fill="white"/>
<path d="M149.228 91.3899H144.735C144.516 91.3899 144.338 91.5675 144.338 91.7867C144.338 92.0058 144.516 92.1835 144.735 92.1835H149.228C149.447 92.1835 149.625 92.0058 149.625 91.7867C149.625 91.5675 149.447 91.3899 149.228 91.3899Z" fill="white"/>
<path d="M134.391 93.2473H133.668C133.449 93.2473 133.271 93.425 133.271 93.6441C133.271 93.8633 133.449 94.0409 133.668 94.0409H134.391C134.61 94.0409 134.788 93.8633 134.788 93.6441C134.788 93.425 134.61 93.2473 134.391 93.2473Z" fill="white"/>
<path d="M142.658 93.2473H141.935C141.716 93.2473 141.539 93.425 141.539 93.6441C141.539 93.8633 141.716 94.0409 141.935 94.0409H142.658C142.877 94.0409 143.055 93.8633 143.055 93.6441C143.055 93.425 142.877 93.2473 142.658 93.2473Z" fill="white"/>
<path d="M145 93.2473H144.278C144.059 93.2473 143.881 93.425 143.881 93.6441C143.881 93.8633 144.059 94.0409 144.278 94.0409H145C145.22 94.0409 145.397 93.8633 145.397 93.6441C145.397 93.425 145.22 93.2473 145 93.2473Z" fill="white"/>
<path d="M140.41 93.1812H135.917C135.698 93.1812 135.521 93.3588 135.521 93.578C135.521 93.7971 135.698 93.9748 135.917 93.9748H140.41C140.629 93.9748 140.807 93.7971 140.807 93.578C140.807 93.3588 140.629 93.1812 140.41 93.1812Z" fill="white"/>
<path d="M151.432 93.1812H146.94C146.721 93.1812 146.543 93.3588 146.543 93.578C146.543 93.7971 146.721 93.9748 146.94 93.9748H151.432C151.651 93.9748 151.829 93.7971 151.829 93.578C151.829 93.3588 151.651 93.1812 151.432 93.1812Z" fill="white"/>
<path d="M136.596 95.0386H135.873C135.654 95.0386 135.476 95.2162 135.476 95.4354C135.476 95.6545 135.654 95.8322 135.873 95.8322H136.596C136.815 95.8322 136.993 95.6545 136.993 95.4354C136.993 95.2162 136.815 95.0386 136.596 95.0386Z" fill="white"/>
<path d="M144.863 95.0386H144.14C143.921 95.0386 143.743 95.2162 143.743 95.4354C143.743 95.6545 143.921 95.8322 144.14 95.8322H144.863C145.082 95.8322 145.26 95.6545 145.26 95.4354C145.26 95.2162 145.082 95.0386 144.863 95.0386Z" fill="white"/>
<path d="M147.205 95.0386H146.482C146.263 95.0386 146.085 95.2162 146.085 95.4354C146.085 95.6545 146.263 95.8322 146.482 95.8322H147.205C147.424 95.8322 147.602 95.6545 147.602 95.4354C147.602 95.2162 147.424 95.0386 147.205 95.0386Z" fill="white"/>
<path d="M142.614 94.9724H138.121C137.902 94.9724 137.725 95.1501 137.725 95.3692C137.725 95.5884 137.902 95.766 138.121 95.766H142.614C142.833 95.766 143.011 95.5884 143.011 95.3692C143.011 95.1501 142.833 94.9724 142.614 94.9724Z" fill="white"/>
<path d="M153.637 94.9724H149.144C148.925 94.9724 148.748 95.1501 148.748 95.3692C148.748 95.5884 148.925 95.766 149.144 95.766H153.637C153.856 95.766 154.034 95.5884 154.034 95.3692C154.034 95.1501 153.856 94.9724 153.637 94.9724Z" fill="white"/>
<path d="M138.8 96.8296H138.077C137.858 96.8296 137.681 97.0072 137.681 97.2264C137.681 97.4455 137.858 97.6232 138.077 97.6232H138.8C139.019 97.6232 139.197 97.4455 139.197 97.2264C139.197 97.0072 139.019 96.8296 138.8 96.8296Z" fill="white"/>
<path d="M147.067 96.8296H146.345C146.125 96.8296 145.948 97.0072 145.948 97.2264C145.948 97.4455 146.125 97.6232 146.345 97.6232H147.067C147.287 97.6232 147.464 97.4455 147.464 97.2264C147.464 97.0072 147.287 96.8296 147.067 96.8296Z" fill="white"/>
<path d="M149.41 96.8296H148.687C148.468 96.8296 148.29 97.0072 148.29 97.2264C148.29 97.4455 148.468 97.6232 148.687 97.6232H149.41C149.629 97.6232 149.806 97.4455 149.806 97.2264C149.806 97.0072 149.629 96.8296 149.41 96.8296Z" fill="white"/>
<path d="M144.819 96.7634H140.326C140.107 96.7634 139.929 96.9411 139.929 97.1602C139.929 97.3794 140.107 97.557 140.326 97.557H144.819C145.038 97.557 145.215 97.3794 145.215 97.1602C145.215 96.9411 145.038 96.7634 144.819 96.7634Z" fill="white"/>
<path d="M140.454 103.952H139.731C139.512 103.952 139.334 104.13 139.334 104.349C139.334 104.568 139.512 104.746 139.731 104.746H140.454C140.673 104.746 140.85 104.568 140.85 104.349C140.85 104.13 140.673 103.952 140.454 103.952Z" fill="white"/>
<path d="M142.796 103.952H142.073C141.854 103.952 141.676 104.13 141.676 104.349C141.676 104.568 141.854 104.746 142.073 104.746H142.796C143.015 104.746 143.193 104.568 143.193 104.349C143.193 104.13 143.015 103.952 142.796 103.952Z" fill="white"/>
<path d="M149.228 104.018H144.735C144.516 104.018 144.338 104.196 144.338 104.415C144.338 104.634 144.516 104.812 144.735 104.812H149.228C149.447 104.812 149.625 104.634 149.625 104.415C149.625 104.196 149.447 104.018 149.228 104.018Z" fill="white"/>
<path d="M132.187 103.952H131.464C131.245 103.952 131.067 104.13 131.067 104.349C131.067 104.568 131.245 104.746 131.464 104.746H132.187C132.406 104.746 132.583 104.568 132.583 104.349C132.583 104.13 132.406 103.952 132.187 103.952Z" fill="white"/>
<path d="M138.205 104.018H133.713C133.494 104.018 133.316 104.196 133.316 104.415C133.316 104.634 133.494 104.812 133.713 104.812H138.205C138.424 104.812 138.602 104.634 138.602 104.415C138.602 104.196 138.424 104.018 138.205 104.018Z" fill="white"/>
<path d="M134.391 102.161H133.668C133.449 102.161 133.271 102.339 133.271 102.558C133.271 102.777 133.449 102.955 133.668 102.955H134.391C134.61 102.955 134.788 102.777 134.788 102.558C134.788 102.339 134.61 102.161 134.391 102.161Z" fill="white"/>
<path d="M142.658 102.161H141.935C141.716 102.161 141.539 102.339 141.539 102.558C141.539 102.777 141.716 102.955 141.935 102.955H142.658C142.877 102.955 143.055 102.777 143.055 102.558C143.055 102.339 142.877 102.161 142.658 102.161Z" fill="white"/>
<path d="M145 102.161H144.278C144.059 102.161 143.881 102.339 143.881 102.558C143.881 102.777 144.059 102.955 144.278 102.955H145C145.22 102.955 145.397 102.777 145.397 102.558C145.397 102.339 145.22 102.161 145 102.161Z" fill="white"/>
<path d="M140.41 102.227H135.917C135.698 102.227 135.521 102.405 135.521 102.624C135.521 102.843 135.698 103.021 135.917 103.021H140.41C140.629 103.021 140.807 102.843 140.807 102.624C140.807 102.405 140.629 102.227 140.41 102.227Z" fill="white"/>
<path d="M136.596 100.37H135.873C135.654 100.37 135.476 100.547 135.476 100.766C135.476 100.986 135.654 101.163 135.873 101.163H136.596C136.815 101.163 136.993 100.986 136.993 100.766C136.993 100.547 136.815 100.37 136.596 100.37Z" fill="white"/>
<path d="M144.863 100.37H144.14C143.921 100.37 143.743 100.547 143.743 100.766C143.743 100.986 143.921 101.163 144.14 101.163H144.863C145.082 101.163 145.26 100.986 145.26 100.766C145.26 100.547 145.082 100.37 144.863 100.37Z" fill="white"/>
<path d="M147.205 100.37H146.482C146.263 100.37 146.085 100.547 146.085 100.766C146.085 100.986 146.263 101.163 146.482 101.163H147.205C147.424 101.163 147.602 100.986 147.602 100.766C147.602 100.547 147.424 100.37 147.205 100.37Z" fill="white"/>
<path d="M142.614 100.436H138.121C137.902 100.436 137.725 100.614 137.725 100.833C137.725 101.052 137.902 101.23 138.121 101.23H142.614C142.833 101.23 143.011 101.052 143.011 100.833C143.011 100.614 142.833 100.436 142.614 100.436Z" fill="white"/>
<path d="M138.8 98.5786H138.077C137.858 98.5786 137.681 98.7563 137.681 98.9754C137.681 99.1946 137.858 99.3722 138.077 99.3722H138.8C139.019 99.3722 139.197 99.1946 139.197 98.9754C139.197 98.7563 139.019 98.5786 138.8 98.5786Z" fill="white"/>
<path d="M147.067 98.5786H146.345C146.125 98.5786 145.948 98.7563 145.948 98.9754C145.948 99.1946 146.125 99.3722 146.345 99.3722H147.067C147.287 99.3722 147.464 99.1946 147.464 98.9754C147.464 98.7563 147.287 98.5786 147.067 98.5786Z" fill="white"/>
<path d="M149.41 98.5786H148.687C148.468 98.5786 148.29 98.7563 148.29 98.9754C148.29 99.1946 148.468 99.3722 148.687 99.3722H149.41C149.629 99.3722 149.806 99.1946 149.806 98.9754C149.806 98.7563 149.629 98.5786 149.41 98.5786Z" fill="white"/>
<path d="M144.819 98.6448H140.326C140.107 98.6448 139.929 98.8224 139.929 99.0416C139.929 99.2607 140.107 99.4384 140.326 99.4384H144.819C145.038 99.4384 145.215 99.2607 145.215 99.0416C145.215 98.8224 145.038 98.6448 144.819 98.6448Z" fill="white"/>
<path d="M128.344 124.944L124.951 119.58L135.602 111.09L139.998 106.219C140.569 105.586 141.296 105.115 142.107 104.851C142.918 104.587 143.783 104.541 144.617 104.717C145.451 104.892 146.225 105.284 146.86 105.852C147.496 106.42 147.971 107.145 148.238 107.955C148.634 109.154 148.549 110.461 148.001 111.598C147.452 112.736 146.483 113.616 145.297 114.053L138.345 116.614L128.344 124.944Z" fill="#FFB6B6"/>
<path d="M48.7251 86.0531V112.123H66.9885V86.0531C66.9888 85.8656 66.929 85.683 66.8178 85.532C66.7066 85.381 66.55 85.2697 66.3708 85.2143C66.2864 85.1864 66.1979 85.1727 66.109 85.1736H49.6071C49.4915 85.1734 49.3769 85.196 49.2699 85.2401C49.163 85.2842 49.0658 85.3489 48.9838 85.4306C48.9019 85.5123 48.8369 85.6093 48.7925 85.7161C48.7481 85.8229 48.7252 85.9374 48.7251 86.0531ZM55.8525 95.0107C55.8573 94.4968 56.0648 94.0055 56.4299 93.6438C56.795 93.282 57.2882 93.0791 57.8021 93.0791C58.3161 93.0791 58.8093 93.282 59.1744 93.6438C59.5395 94.0055 59.747 94.4968 59.7518 95.0107V98.0355C59.7491 98.5509 59.5426 99.0442 59.1772 99.4077C58.8119 99.7712 58.3175 99.9752 57.8021 99.9752C57.2868 99.9752 56.7924 99.7712 56.4271 99.4077C56.0617 99.0442 55.8552 98.5509 55.8525 98.0355V95.0107Z" fill="#2F2E41"/>
<path d="M48.6694 111.289V113.803C48.6698 113.933 48.7216 114.058 48.8134 114.15C48.9053 114.242 49.0298 114.295 49.16 114.296H66.5541C66.6844 114.295 66.8092 114.243 66.9012 114.151C66.9931 114.058 67.0447 113.933 67.0447 113.803V111.289H48.6694Z" fill="#3F3D56"/>
<path d="M19.9946 46.7759V94.375C19.9951 94.9816 20.2363 95.5632 20.6652 95.9922C21.0941 96.4211 21.6757 96.6623 22.2823 96.6627H92.8194C93.426 96.6623 94.0076 96.4211 94.4365 95.9922C94.8655 95.5632 95.1066 94.9816 95.1071 94.375V46.7759C95.1057 46.1698 94.8641 45.589 94.4353 45.1607C94.0065 44.7324 93.4255 44.4915 92.8194 44.4907H22.2823C21.6763 44.4915 21.0952 44.7324 20.6664 45.1607C20.2376 45.589 19.9961 46.1698 19.9946 46.7759Z" fill="#3F3D56"/>
<path d="M21.6489 47.3683V93.788C21.6495 94.1121 21.7785 94.4228 22.0076 94.6519C22.2368 94.8811 22.5475 95.0101 22.8716 95.0107H92.2318C92.5559 95.0101 92.8665 94.8811 93.0957 94.6519C93.3249 94.4228 93.4539 94.1121 93.4544 93.788V47.3683C93.4544 47.0438 93.3257 46.7325 93.0964 46.5029C92.8672 46.2732 92.5563 46.1438 92.2318 46.1431H22.8716C22.5471 46.1438 22.2361 46.2732 22.0069 46.5029C21.7777 46.7325 21.649 47.0438 21.6489 47.3683Z" fill="white"/>
<path d="M34.5213 114.126C34.5919 114.214 34.6816 114.286 34.7838 114.334C34.8859 114.383 34.9978 114.408 35.111 114.408H76.3759C76.4887 114.408 76.6001 114.382 76.702 114.334C76.8038 114.285 76.8935 114.214 76.9646 114.127C77.0357 114.039 77.0864 113.937 77.1129 113.827C77.1395 113.717 77.1412 113.603 77.1181 113.493L76.4775 110.45C76.451 110.326 76.3938 110.211 76.3112 110.114C76.2287 110.018 76.1233 109.944 76.0048 109.898C75.9189 109.865 75.8275 109.848 75.7353 109.848H35.749C35.6568 109.848 35.5654 109.865 35.4796 109.898C35.361 109.944 35.2557 110.018 35.1731 110.114C35.0905 110.211 35.0334 110.326 35.0068 110.45L34.3663 113.493C34.3435 113.603 34.3456 113.717 34.3724 113.827C34.3992 113.936 34.4501 114.038 34.5213 114.126Z" fill="#2F2E41"/>
<path d="M89.9811 52.5374H25.081C25.0136 52.5359 24.9494 52.5081 24.9022 52.4598C24.855 52.4116 24.8286 52.3468 24.8286 52.2793C24.8286 52.2119 24.855 52.1471 24.9022 52.0988C24.9494 52.0506 25.0136 52.0227 25.081 52.0212H89.9811C90.0486 52.0227 90.1128 52.0506 90.1599 52.0988C90.2071 52.1471 90.2335 52.2119 90.2335 52.2793C90.2335 52.3468 90.2071 52.4116 90.1599 52.4598C90.1128 52.5081 90.0486 52.5359 89.9811 52.5374Z" fill="#3F3D56"/>
<path d="M29.4989 50.7036C30.3342 50.7036 31.0114 50.0113 31.0114 49.1573C31.0114 48.3034 30.3342 47.6111 29.4989 47.6111C28.6635 47.6111 27.9863 48.3034 27.9863 49.1573C27.9863 50.0113 28.6635 50.7036 29.4989 50.7036Z" fill="#3F3D56"/>
<path d="M34.724 50.7036C35.5593 50.7036 36.2365 50.0113 36.2365 49.1573C36.2365 48.3034 35.5593 47.6111 34.724 47.6111C33.8886 47.6111 33.2114 48.3034 33.2114 49.1573C33.2114 50.0113 33.8886 50.7036 34.724 50.7036Z" fill="#3F3D56"/>
<path d="M39.949 50.7036C40.7844 50.7036 41.4616 50.0113 41.4616 49.1573C41.4616 48.3034 40.7844 47.6111 39.949 47.6111C39.1137 47.6111 38.4365 48.3034 38.4365 49.1573C38.4365 50.0113 39.1137 50.7036 39.949 50.7036Z" fill="#3F3D56"/>
<path d="M86.8347 47.9934H83.1235C83.0502 47.9951 82.9804 48.0255 82.9291 48.0779C82.8778 48.1304 82.8491 48.2009 82.8491 48.2743C82.8491 48.3477 82.8778 48.4181 82.9291 48.4706C82.9804 48.5231 83.0502 48.5535 83.1235 48.5552H86.8347C86.9085 48.5541 86.9789 48.5241 87.0307 48.4715C87.0826 48.4189 87.1116 48.3481 87.1116 48.2743C87.1116 48.2005 87.0826 48.1296 87.0307 48.0771C86.9789 48.0245 86.9085 47.9944 86.8347 47.9934Z" fill="#3F3D56"/>
<path d="M86.8345 49.0483H83.1234C83.05 49.05 82.9801 49.0803 82.9287 49.1328C82.8774 49.1853 82.8486 49.2558 82.8486 49.3292C82.8486 49.4027 82.8774 49.4732 82.9287 49.5257C82.9801 49.5782 83.05 49.6085 83.1234 49.6101H86.8345C86.9084 49.6092 86.979 49.5792 87.031 49.5266C87.0829 49.4741 87.112 49.4031 87.112 49.3292C87.112 49.2553 87.0829 49.1844 87.031 49.1318C86.979 49.0792 86.9084 49.0492 86.8345 49.0483Z" fill="#3F3D56"/>
<path d="M86.8347 50.1033H83.1235C83.0502 50.105 82.9804 50.1353 82.9291 50.1878C82.8778 50.2403 82.8491 50.3108 82.8491 50.3842C82.8491 50.4575 82.8778 50.528 82.9291 50.5805C82.9804 50.633 83.0502 50.6633 83.1235 50.665H86.8347C86.9085 50.664 86.9789 50.6339 87.0307 50.5814C87.0826 50.5288 87.1116 50.458 87.1116 50.3842C87.1116 50.3103 87.0826 50.2395 87.0307 50.1869C86.9789 50.1344 86.9085 50.1043 86.8347 50.1033Z" fill="#3F3D56"/>
<path d="M176.304 112.392C176.416 112.718 176.628 113 176.91 113.198C177.193 113.396 177.53 113.499 177.875 113.493L184.609 113.32C184.956 113.313 185.292 113.194 185.566 112.981C185.84 112.767 186.038 112.471 186.129 112.136L187.082 101.946C187.42 102.099 187.788 102.175 188.16 102.168C188.482 102.159 188.8 102.088 189.094 101.957C189.389 101.826 189.655 101.639 189.877 101.405C190.1 101.171 190.274 100.896 190.39 100.595C190.505 100.294 190.561 99.9733 190.553 99.6509C190.545 99.3285 190.473 99.0109 190.342 98.7161C190.212 98.4214 190.024 98.1553 189.79 97.933C189.557 97.7108 189.281 97.5367 188.98 97.4208C188.679 97.3049 188.359 97.2494 188.036 97.2575C187.888 97.2571 187.74 97.2725 187.595 97.3034C187.437 97.1328 187.245 96.997 187.032 96.905C186.819 96.8129 186.588 96.7665 186.356 96.7689L175.998 97.0364C175.912 97.0395 175.826 97.0502 175.742 97.0681C175.515 97.1104 175.3 97.201 175.11 97.3335C174.921 97.4661 174.762 97.6377 174.645 97.8368C174.528 98.0358 174.454 98.2577 174.43 98.4875C174.406 98.7172 174.431 98.9496 174.504 99.1689L176.304 112.392ZM187.278 101.254L187.956 98.8262C188.033 98.5457 188.035 98.2498 187.961 97.9684C187.994 97.9683 188.023 97.9527 188.056 97.9526C188.521 97.943 188.97 98.1182 189.306 98.4397C189.642 98.7612 189.837 99.2028 189.848 99.6677C189.859 100.133 189.685 100.583 189.365 100.92C189.044 101.257 188.603 101.453 188.138 101.465C187.837 101.474 187.54 101.401 187.278 101.254Z" fill="#2F2E41"/>
<path d="M175.742 97.0681C175.963 98.33 178.444 99.217 181.427 99.0628C184.171 98.9364 186.414 97.9731 186.825 96.8314C186.673 96.7865 186.515 96.7654 186.356 96.7689L175.998 97.0364C175.912 97.0396 175.826 97.0502 175.742 97.0681Z" fill="#3F3D56"/>
<path d="M181.974 106.793C181.988 106.789 182.001 106.783 182.012 106.776L183.475 105.819C183.493 105.807 183.507 105.791 183.517 105.773C183.527 105.754 183.532 105.733 183.532 105.712C183.532 105.691 183.527 105.67 183.517 105.652C183.507 105.633 183.493 105.618 183.475 105.606L181.955 104.61C181.941 104.601 181.925 104.595 181.909 104.592C181.893 104.588 181.876 104.589 181.859 104.592C181.843 104.595 181.827 104.602 181.813 104.611C181.8 104.621 181.788 104.633 181.779 104.647C181.769 104.661 181.763 104.676 181.76 104.693C181.757 104.709 181.757 104.726 181.761 104.743C181.764 104.759 181.771 104.774 181.78 104.788C181.79 104.802 181.802 104.814 181.816 104.823L183.173 105.712L181.873 106.563C181.848 106.58 181.83 106.604 181.821 106.633C181.813 106.662 181.814 106.693 181.827 106.721C181.839 106.748 181.86 106.77 181.887 106.784C181.914 106.797 181.945 106.8 181.974 106.793Z" fill="#27AE60"/>
<path d="M179.664 106.899C179.689 106.893 179.711 106.88 179.728 106.861C179.745 106.842 179.756 106.818 179.759 106.793C179.763 106.768 179.758 106.743 179.747 106.72C179.736 106.697 179.718 106.678 179.696 106.666L178.348 105.893L179.651 104.925C179.665 104.915 179.676 104.903 179.685 104.888C179.693 104.874 179.699 104.858 179.701 104.842C179.704 104.825 179.703 104.809 179.699 104.792C179.695 104.776 179.687 104.761 179.677 104.748C179.668 104.734 179.655 104.723 179.641 104.714C179.626 104.706 179.611 104.7 179.594 104.698C179.578 104.695 179.561 104.696 179.545 104.7C179.528 104.704 179.513 104.711 179.5 104.721L178.041 105.805C178.024 105.817 178.011 105.834 178.002 105.853C177.993 105.872 177.989 105.893 177.99 105.914C177.991 105.935 177.998 105.956 178.009 105.974C178.02 105.992 178.035 106.007 178.054 106.017L179.57 106.886C179.599 106.903 179.632 106.907 179.664 106.899Z" fill="#27AE60"/>
<path d="M181.829 107.632C181.841 107.628 181.853 107.624 181.864 107.617C181.878 107.608 181.89 107.597 181.9 107.583C181.91 107.57 181.917 107.555 181.921 107.538C181.925 107.522 181.926 107.505 181.923 107.489C181.921 107.472 181.915 107.456 181.906 107.442L179.833 104.034C179.816 104.005 179.787 103.985 179.755 103.977C179.722 103.969 179.687 103.974 179.659 103.992C179.63 104.009 179.609 104.037 179.601 104.07C179.593 104.103 179.599 104.137 179.616 104.166L181.689 107.575C181.703 107.598 181.724 107.616 181.75 107.626C181.775 107.636 181.803 107.638 181.829 107.632Z" fill="#27AE60"/>
<path d="M65.2856 66.5686H54.0529C53.5946 66.5686 53.2231 66.9401 53.2231 67.3983V68.4957C53.2231 68.954 53.5946 69.3254 54.0529 69.3254H65.2856C65.7439 69.3254 66.1153 68.954 66.1153 68.4957V67.3983C66.1153 66.9401 65.7439 66.5686 65.2856 66.5686Z" fill="#27AE60"/>
<path d="M71.8328 72.0823H47.505C47.0468 72.0823 46.6753 72.4537 46.6753 72.912V74.0094C46.6753 74.4676 47.0468 74.8391 47.505 74.8391H71.8328C72.291 74.8391 72.6625 74.4676 72.6625 74.0094V72.912C72.6625 72.4537 72.291 72.0823 71.8328 72.0823Z" fill="#E6E6E6"/>
<path d="M71.8328 77.5959H47.505C47.0468 77.5959 46.6753 77.9674 46.6753 78.4257V79.5231C46.6753 79.9813 47.0468 80.3528 47.505 80.3528H71.8328C72.291 80.3528 72.6625 79.9813 72.6625 79.5231V78.4257C72.6625 77.9674 72.291 77.5959 71.8328 77.5959Z" fill="#E6E6E6"/>
<path d="M73.895 96.0592L73.9501 96.2332L73.953 96.239L75.6116 101.282L77.5196 107.093L81.1095 118.013L81.1442 119.709V119.715L81.411 133.361L80.6716 135.211L81.5038 138.244C81.5038 138.244 81.121 133.659 79.0681 136.292C77.9053 137.788 76.5453 139.319 75.429 140.755C77.0557 141.413 78.7085 142.008 80.3874 142.541C80.7499 142.657 81.1153 142.767 81.4806 142.877C81.5589 142.9 81.6372 142.924 81.7155 142.947C87.2809 144.593 93.0344 145.518 98.8352 145.699C99.1368 145.707 99.4326 145.713 99.7197 145.719C99.8212 145.722 99.9197 145.725 100.018 145.725C100.343 145.728 100.665 145.731 100.99 145.731C101.645 145.731 102.297 145.721 102.947 145.702C107.755 145.566 112.534 144.92 117.205 143.773C117.173 141.845 117.086 139.592 116.961 137.185C116.903 136.005 115.601 134.726 115.523 133.491C115.468 132.563 116.636 131.69 116.576 130.748C116.181 124.946 115.688 127.173 115.323 123.064C115.285 122.661 115.25 122.275 115.218 121.907C114.984 119.268 114.821 117.618 114.821 117.618L116.381 107.786L118.832 92.3477L118.643 92.0374L118.431 91.933L105.507 85.5363L104.806 83.7385C104.601 83.2205 104.247 82.7756 103.787 82.4609C103.328 82.1462 102.785 81.9761 102.228 81.9726L93.7144 81.9378C93.2726 81.9358 92.8367 82.0392 92.4428 82.2394C92.0489 82.4396 91.7085 82.7308 91.4497 83.089L89.1445 86.2815L73.895 96.0592Z" fill="#3F3D56"/>
<path d="M83.0728 115.583L81.1445 119.709L79.828 122.527L77.5634 134.384L76.4296 135.588L75.4582 131.328L65.2912 133.585C64.9578 131.732 65.202 133.648 64.9961 131.615C65.0541 131.557 65.115 131.499 65.1759 131.441C65.3383 131.29 65.4745 131.148 65.4716 131.012C65.3557 124 65.7036 112.068 68.6091 104.839C69.0642 103.659 69.6642 102.54 70.3953 101.508C70.4533 101.429 70.5084 101.351 70.5635 101.273C71.9032 99.3966 72.7499 97.5495 73.9503 96.2359V96.233C73.9578 96.227 73.9646 96.2202 73.9706 96.2127C73.975 96.2106 73.9789 96.2076 73.9822 96.204L82.2289 91.8313L82.5827 101.771L82.835 108.916L83.0728 115.583Z" fill="#3F3D56"/>
<path d="M112.809 116.755L115.218 121.908L116.058 123.703L118.322 135.559L119.453 136.759L120.426 132.5L120.884 132.406L129.134 130.698L131.539 138.335C132.081 137.432 132.295 136.369 132.143 135.327C131.992 134.285 131.486 133.327 130.71 132.614C130.546 132.466 130.409 132.321 130.413 132.184C130.55 123.938 130.045 108.879 125.49 102.682C124.043 100.715 123.175 98.7559 121.912 97.3874C121.908 97.3835 121.908 97.3795 121.904 97.3795L118.831 92.3471L118.643 92.0382L118.432 91.9326L112.809 116.755Z" fill="#3F3D56"/>
<path d="M98.2173 79.5149C104.473 79.5149 109.543 74.444 109.543 68.1887C109.543 61.9334 104.473 56.8625 98.2173 56.8625C91.962 56.8625 86.8911 61.9334 86.8911 68.1887C86.8911 74.444 91.962 79.5149 98.2173 79.5149Z" fill="#FFB6B6"/>
<path d="M113.526 60.2774C113.438 60.1837 113.332 60.1085 113.215 60.0566C113.097 60.0046 112.97 59.9768 112.842 59.975L113.012 59.5022C113.068 59.3533 113.083 59.1922 113.056 59.0356C113.029 58.879 112.96 58.7324 112.858 58.6108C112.755 58.4893 112.623 58.3971 112.473 58.3438C112.323 58.2905 112.162 58.278 112.006 58.3075L111.385 58.427L111.444 58.0126C111.466 57.8583 111.448 57.7008 111.391 57.5557C111.334 57.4105 111.241 57.2826 111.119 57.1846C110.998 57.0867 110.853 57.022 110.699 56.9969C110.545 56.9718 110.388 56.9872 110.242 57.0416C110.109 57.094 109.966 57.1159 109.823 57.1058C109.681 57.0956 109.542 57.0538 109.418 56.9832C109.293 56.9148 109.185 56.8199 109.101 56.7054C109.016 56.5908 108.958 56.4592 108.93 56.3197L108.714 55.2776L108.691 55.2216C107.639 53.4677 105.615 52.1917 103.14 51.724C100.936 51.3046 98.676 51.5181 96.4976 51.7189C95.6334 51.8003 94.6573 51.8918 93.8439 52.39C93.1525 52.817 92.5679 53.6711 92.6874 54.5328C90.5395 53.8744 88.2365 55.1886 87.0952 56.8459C85.743 58.8184 85.5218 61.2891 85.4862 63.2209C85.3896 67.7912 86.3327 71.5303 88.2823 74.3366C88.4246 74.5399 88.4602 74.9644 88.7424 75.1068L88.6839 75.0127C88.9991 75.1703 89.3194 75.4245 89.1999 75.6965C88.8568 76.4794 91.1368 78.2104 92.7433 78.7823C95.6741 79.827 99.5708 79.7381 102.311 79.3619L102.408 78.7137C103.396 78.579 104.093 78.3222 104.288 77.9206C104.634 77.6257 104.929 77.3614 105.186 77.1174L105.188 77.1148C105.193 77.1098 105.204 77.1021 105.209 77.097C106.447 75.91 106.734 75.2339 106.863 74.2044C106.988 73.1953 106.767 72.1709 106.541 71.2482C111.304 71.9853 104.665 66.1746 109.103 65.0511C109.154 65.0354 109.205 65.0227 109.258 65.013C109.387 64.9825 109.517 64.952 109.642 64.9164C110.242 64.7534 110.817 64.5079 111.35 64.1869C112.59 63.4319 113 62.4304 113.64 61.3018C113.732 61.1411 113.771 60.9551 113.751 60.7709C113.73 60.5867 113.651 60.4138 113.526 60.2774Z" fill="#2F2E41"/>
<path d="M138.276 117.561C138.273 118.006 138.268 118.629 138.248 119.399C138.246 119.506 138.243 119.615 138.24 119.727C138.207 121.143 138.174 122.33 138.121 123.649C138.118 123.74 138.116 123.829 138.111 123.921C138.04 125.761 137.928 127.904 137.735 131.297C137.376 137.566 136.751 132.159 136.123 134.358C136.093 134.467 136.06 134.597 136.029 134.749C135.934 135.303 135.774 135.843 135.551 136.358C135.218 136.557 134.875 136.747 134.537 136.938C133.574 137.474 132.595 137.99 131.609 138.481C131.055 138.755 130.498 139.025 129.939 139.284C129.85 139.325 129.763 139.365 129.677 139.404C126.813 140.728 123.862 141.854 120.844 142.774C120.254 142.952 119.667 143.125 119.072 143.285C118.452 143.458 117.832 143.621 117.204 143.773C112.533 144.92 107.754 145.566 102.947 145.702C102.298 145.723 101.645 145.73 100.989 145.73C100.664 145.73 100.344 145.728 100.018 145.725C99.9191 145.725 99.82 145.723 99.7209 145.72C99.4336 145.712 99.1362 145.707 98.8363 145.7C93.0354 145.519 87.2819 144.594 81.7167 142.947L81.4803 142.878C81.1143 142.766 80.7508 142.657 80.3873 142.54C78.7097 142.009 77.0566 141.414 75.4281 140.756C74.1851 140.255 72.9566 139.718 71.7424 139.144C71.7313 139.141 71.7209 139.136 71.7119 139.129C71.4577 139.012 71.201 138.89 70.9468 138.766C70.9138 138.748 70.8782 138.73 70.8426 138.712C69.8945 138.25 68.9565 137.765 68.0287 137.258C67.2484 135.466 66.1503 135.123 65.469 133.547C65.2708 133.079 65.1275 132.589 65.042 132.088C65.042 132.083 65.0395 132.078 65.0395 132.07C65.1106 133.016 64.737 130.393 65.0369 132.06C65.0344 132.03 65.0319 131.997 65.0293 131.958C65.0217 131.867 65.0115 131.755 64.9963 131.615C64.1244 123.102 64.1803 113.367 63.8016 105.345C63.7762 104.826 63.7499 104.33 63.7228 103.855C63.7152 103.698 63.705 103.543 63.6948 103.39C63.7126 103.344 63.7329 103.296 63.7558 103.25C63.7607 103.237 63.7666 103.224 63.7736 103.212C63.7811 103.197 63.7896 103.181 63.799 103.167C63.8041 103.159 63.8118 103.149 63.8168 103.141C63.8206 103.132 63.8248 103.124 63.8295 103.116C63.8524 103.08 63.8778 103.042 63.9058 103.006C63.9185 102.991 63.9287 102.978 63.9414 102.966C63.9502 102.953 63.9604 102.941 63.9719 102.93C63.9797 102.918 63.9891 102.907 63.9999 102.897C64.01 102.887 64.0202 102.874 64.0329 102.862C64.0383 102.854 64.0452 102.847 64.0532 102.841C64.0733 102.818 64.0954 102.797 64.1193 102.778C64.21 102.694 64.3069 102.618 64.4091 102.549C64.4447 102.526 64.4828 102.503 64.5184 102.478C64.7746 102.324 65.0443 102.195 65.3242 102.091C65.4208 102.056 65.5173 102.023 65.6216 101.987C65.6597 101.977 65.6953 101.964 65.7334 101.952C65.7893 101.934 65.8453 101.916 65.9037 101.903C66.1935 101.817 66.5061 101.743 66.8442 101.674C66.8849 101.667 66.9281 101.659 66.9713 101.649C67.0323 101.636 67.0959 101.626 67.1594 101.616C67.2458 101.601 67.3348 101.585 67.4238 101.57C68.1787 101.451 69.0353 101.362 69.9809 101.303C70.0699 101.298 70.1588 101.293 70.2478 101.288C70.352 101.283 70.4562 101.278 70.563 101.273C70.6519 101.268 70.7435 101.265 70.835 101.263C70.9239 101.258 71.0154 101.255 71.1095 101.253C71.3662 101.245 71.6306 101.237 71.9 101.232C72.6677 101.217 73.476 101.222 74.325 101.24C74.7189 101.25 75.1206 101.26 75.5324 101.278C75.5603 101.278 75.5857 101.28 75.6111 101.28C75.9696 101.293 76.3305 101.308 76.7016 101.329C76.9609 101.341 77.2227 101.354 77.4845 101.369C77.7311 101.385 77.9802 101.4 78.2318 101.418C78.4275 101.428 78.6233 101.443 78.8215 101.456C78.9893 101.469 79.1571 101.481 79.3248 101.491L79.5536 101.507C79.6781 101.517 79.8027 101.524 79.9298 101.537C80.2094 101.56 80.489 101.583 80.7737 101.606C81.0558 101.631 81.3431 101.657 81.6303 101.682C81.9175 101.708 82.2073 101.735 82.4971 101.763C82.5276 101.766 82.5555 101.769 82.5835 101.771C82.8479 101.799 83.1122 101.824 83.3791 101.852C83.4401 101.857 83.5037 101.863 83.5647 101.87C83.8191 101.896 84.0786 101.926 84.3354 101.953C84.4142 101.961 84.4926 101.97 84.5716 101.978C84.7728 102 84.9711 102.019 85.1737 102.043C85.4405 102.074 85.7126 102.101 85.9769 102.137C86.1828 102.16 86.3887 102.183 86.5946 102.208C86.9174 102.246 87.2453 102.287 87.5732 102.33C87.6977 102.346 87.8223 102.361 87.9468 102.379C88.8823 102.495 89.8278 102.625 90.7887 102.76C92.2452 102.966 93.7245 103.189 95.2141 103.431C96.7062 103.672 98.2067 103.927 99.7157 104.196C100.097 104.265 100.478 104.333 100.862 104.404C101.035 104.437 101.208 104.471 101.381 104.504C101.676 104.557 101.97 104.613 102.265 104.669C102.56 104.725 102.855 104.781 103.15 104.839C103.501 104.908 103.854 104.976 104.205 105.045C106.515 105.503 108.813 105.991 111.055 106.501C111.424 106.585 111.792 106.672 112.158 106.756C112.89 106.926 113.616 107.099 114.334 107.274C114.532 107.32 114.728 107.368 114.924 107.417C115.412 107.539 115.9 107.661 116.38 107.785L116.464 107.808C116.817 107.894 117.163 107.983 117.509 108.075C118.325 108.288 119.127 108.504 119.916 108.723C120.44 108.868 120.957 109.015 121.469 109.163C122.234 109.384 122.984 109.608 123.714 109.834C123.894 109.89 124.075 109.946 124.252 109.999C124.786 110.164 125.312 110.332 125.823 110.5C126.23 110.632 126.627 110.767 127.018 110.901C127.409 111.036 127.793 111.171 128.17 111.306C128.411 111.392 128.65 111.484 128.889 111.57C129.232 111.697 129.57 111.824 129.901 111.951C130.002 111.989 130.101 112.03 130.2 112.068C130.264 112.096 130.325 112.119 130.386 112.144C130.505 112.193 130.628 112.238 130.744 112.287C130.864 112.333 130.981 112.381 131.098 112.432C131.212 112.477 131.329 112.526 131.441 112.574C131.555 112.62 131.667 112.668 131.779 112.719C131.873 112.757 131.965 112.798 132.053 112.838C132.234 112.917 132.414 112.996 132.59 113.077C132.676 113.118 132.763 113.156 132.849 113.197L133.047 113.288C133.075 113.304 133.103 113.316 133.131 113.329C133.195 113.359 133.261 113.393 133.324 113.423C133.472 113.492 133.617 113.565 133.759 113.634C133.95 113.731 134.135 113.827 134.313 113.921C134.494 114.018 134.669 114.114 134.837 114.208C134.865 114.224 134.89 114.239 134.918 114.254C134.956 114.275 134.994 114.297 135.033 114.318C135.162 114.391 135.287 114.468 135.411 114.541C135.655 114.691 135.887 114.839 136.103 114.986C136.151 115.019 136.197 115.052 136.245 115.083C136.405 115.197 136.558 115.309 136.7 115.423C136.7 115.426 136.7 115.426 136.703 115.426C136.751 115.462 136.797 115.5 136.842 115.535C136.881 115.571 136.921 115.601 136.959 115.637C137.091 115.751 137.214 115.861 137.325 115.972C137.363 116.007 137.398 116.044 137.432 116.082C137.447 116.094 137.461 116.108 137.473 116.122C137.524 116.173 137.569 116.224 137.613 116.275C137.619 116.282 137.625 116.29 137.63 116.298C137.691 116.369 137.747 116.44 137.801 116.511C137.826 116.547 137.854 116.583 137.877 116.618C137.907 116.661 137.938 116.707 137.963 116.75C137.986 116.786 138.007 116.824 138.027 116.86C138.081 116.951 138.127 117.047 138.164 117.147C138.193 117.214 138.216 117.284 138.233 117.355C138.252 117.423 138.267 117.492 138.276 117.561Z" fill="#2F2E41"/>
<path opacity="0.2" d="M138.276 117.561C138.274 118.006 138.269 118.629 138.248 119.399C138.246 119.506 138.241 119.615 138.238 119.727C138.213 120.807 138.174 122.142 138.121 123.649C138.119 123.74 138.116 123.829 138.111 123.921C138.04 125.761 137.928 127.904 137.735 131.297C137.376 137.566 136.751 132.159 136.123 134.358C134.379 133.285 132.468 132.162 130.424 131.008C130.056 130.799 129.684 130.59 129.308 130.38C125.221 128.1 120.656 125.71 115.89 123.344C115.702 123.25 115.511 123.156 115.323 123.064C104.406 117.668 92.4893 112.419 82.8353 108.916C80.9721 108.24 79.1928 107.63 77.5202 107.094C73.9972 105.968 70.952 105.18 68.6084 104.839C66.1682 104.483 64.4829 104.61 63.8017 105.345C63.7763 104.826 63.75 104.33 63.7229 103.855C63.7127 103.698 63.7025 103.543 63.6924 103.39C63.7081 103.348 63.7285 103.308 63.7482 103.268C63.751 103.262 63.753 103.256 63.7559 103.25C63.7608 103.237 63.7668 103.224 63.7737 103.212C63.7812 103.197 63.7897 103.181 63.7991 103.167C63.8074 103.149 63.8176 103.131 63.8296 103.116C63.8525 103.08 63.8779 103.042 63.9059 103.006C63.9265 102.98 63.9485 102.954 63.972 102.93C63.9798 102.918 63.9892 102.907 64 102.897C64.0101 102.887 64.0203 102.874 64.033 102.861C64.0384 102.853 64.0453 102.847 64.0533 102.841C64.0734 102.818 64.0956 102.797 64.1194 102.778C64.2101 102.694 64.307 102.618 64.4092 102.549C64.4448 102.526 64.4829 102.503 64.5185 102.478C64.7747 102.324 65.0444 102.195 65.3243 102.091C65.4209 102.056 65.5174 102.023 65.6217 101.987C65.6598 101.977 65.6954 101.964 65.7335 101.952C65.7894 101.934 65.8454 101.916 65.9038 101.903C66.1936 101.817 66.5062 101.743 66.8443 101.674C66.946 101.654 67.0527 101.634 67.1595 101.616C67.2459 101.601 67.3349 101.585 67.4239 101.57C68.1788 101.451 69.0354 101.362 69.981 101.303C70.07 101.298 70.1589 101.293 70.2479 101.288C70.3521 101.283 70.4563 101.278 70.5631 101.273C70.652 101.268 70.7436 101.265 70.8351 101.263C70.924 101.258 71.0155 101.255 71.1096 101.252C71.3663 101.245 71.6307 101.237 71.9001 101.232C72.6678 101.219 73.4761 101.225 74.3251 101.242C74.7191 101.25 75.1207 101.263 75.5325 101.28C75.5579 101.28 75.5858 101.283 75.6113 101.283C75.9697 101.293 76.3331 101.311 76.7017 101.329C76.961 101.341 77.2228 101.354 77.4846 101.369C77.7312 101.385 77.9803 101.4 78.2319 101.418C78.4276 101.428 78.6234 101.443 78.8216 101.456C78.9894 101.469 79.1572 101.481 79.3249 101.491C79.5257 101.507 79.7265 101.522 79.9299 101.537C80.2095 101.56 80.4891 101.583 80.7738 101.606C81.0559 101.631 81.3432 101.657 81.6304 101.682C81.9176 101.707 82.2074 101.735 82.4972 101.763C82.5277 101.766 82.5557 101.768 82.5836 101.771C82.848 101.799 83.1123 101.824 83.3792 101.852C84.8586 102.002 86.3812 102.178 87.947 102.379C88.8824 102.498 89.8296 102.626 90.7888 102.762C92.2453 102.968 93.7247 103.192 95.2142 103.431C96.7063 103.672 98.2068 103.927 99.7159 104.196C100.097 104.265 100.478 104.333 100.862 104.404C101.33 104.491 101.798 104.579 102.265 104.669C102.56 104.725 102.855 104.781 103.15 104.839C103.501 104.908 103.854 104.976 104.205 105.045C106.515 105.503 108.813 105.991 111.055 106.501C111.424 106.585 111.792 106.672 112.158 106.756C112.89 106.926 113.616 107.099 114.334 107.274C114.532 107.322 114.728 107.371 114.924 107.419C115.414 107.541 115.9 107.663 116.38 107.785V107.788C116.408 107.793 116.436 107.8 116.464 107.808C116.815 107.897 117.163 107.986 117.509 108.077C118.325 108.291 119.127 108.506 119.916 108.723C120.44 108.87 120.958 109.015 121.469 109.163C122.234 109.387 122.984 109.61 123.714 109.834C123.894 109.89 124.075 109.946 124.253 109.999C124.786 110.167 125.31 110.334 125.823 110.5C126.23 110.632 126.627 110.767 127.018 110.901C127.41 111.036 127.793 111.171 128.17 111.306C128.414 111.392 128.653 111.481 128.889 111.567C129.235 111.695 129.57 111.822 129.901 111.951C130.002 111.989 130.101 112.03 130.201 112.068C130.386 112.139 130.567 112.213 130.745 112.287C130.864 112.333 130.981 112.381 131.098 112.432C131.212 112.477 131.329 112.526 131.441 112.574C131.555 112.62 131.667 112.668 131.779 112.719C131.873 112.757 131.965 112.798 132.054 112.838C132.234 112.917 132.415 112.996 132.59 113.077C132.676 113.118 132.763 113.156 132.849 113.197L133.048 113.288C133.075 113.304 133.103 113.316 133.131 113.329C133.347 113.431 133.556 113.532 133.759 113.634C133.95 113.731 134.135 113.827 134.313 113.921C134.524 114.033 134.725 114.142 134.918 114.254C134.956 114.275 134.995 114.297 135.033 114.318C135.162 114.391 135.287 114.468 135.411 114.541C135.655 114.691 135.887 114.839 136.103 114.986C136.316 115.134 136.515 115.279 136.7 115.423C136.7 115.426 136.7 115.426 136.703 115.426C136.792 115.497 136.878 115.568 136.959 115.637C137.092 115.751 137.214 115.861 137.325 115.972C137.363 116.007 137.399 116.043 137.432 116.082C137.447 116.094 137.461 116.108 137.473 116.122C137.526 116.181 137.58 116.239 137.631 116.298C137.692 116.369 137.747 116.44 137.801 116.511C137.826 116.547 137.854 116.583 137.877 116.618C137.908 116.661 137.938 116.707 137.964 116.75C137.986 116.786 138.007 116.824 138.027 116.86C138.081 116.951 138.127 117.047 138.164 117.147C138.192 117.215 138.215 117.284 138.233 117.355C138.252 117.423 138.267 117.492 138.276 117.561Z" fill="black"/>
</g>
<defs>
<clipPath id="clip0_6_48">
<rect width="200" height="145.461" fill="white" transform="translate(0 0.269531)"/>
</clipPath>
</defs>
</svg>
