<svg width="200" height="150" viewBox="0 0 200 150" fill="none" xmlns="http://www.w3.org/2000/svg">
<g clip-path="url(#clip0_6_359)">
<path d="M181.1 148.391H138.693V147.089C138.693 145.959 139.142 144.876 139.941 144.077C140.74 143.278 141.824 142.829 142.953 142.829H176.84C177.97 142.829 179.053 143.278 179.852 144.077C180.651 144.876 181.1 145.959 181.1 147.089V148.391Z" fill="#E6E6E6"/>
<path d="M158.905 143.089L160.194 142.569C146.701 109.076 148.001 66.8217 159.407 30.5749C160.762 26.3752 160.86 21.871 159.688 17.6164C158.517 13.3619 156.127 9.54264 152.813 6.62851C146.193 0.720376 137.065 -0.718896 128.991 2.87198C121.022 6.41703 119.923 12.592 119.923 18.7369H121.314C121.314 12.1775 122.715 7.18538 129.556 4.14238C137.123 0.777065 145.68 2.12689 151.887 7.66604C155 10.403 157.244 13.9902 158.345 17.9862C159.445 21.9823 159.353 26.2128 158.081 30.1574C146.543 66.8228 145.319 109.367 158.905 143.089Z" fill="#E6E6E6"/>
<path d="M120.966 39.2452C123.654 39.2452 125.832 37.0664 125.832 34.3788C125.832 31.6912 123.654 29.5125 120.966 29.5125C118.278 29.5125 116.1 31.6912 116.1 34.3788C116.1 37.0664 118.278 39.2452 120.966 39.2452Z" fill="#E6E6E6"/>
<path d="M113.471 42.8622V33.6416H114.905V42.8622C115.316 43.0286 115.657 43.3328 115.868 43.7227C116.08 44.1126 116.149 44.564 116.064 44.9995C115.98 45.435 115.746 45.8274 115.404 46.1095C115.061 46.3917 114.632 46.546 114.188 46.546C113.744 46.546 113.315 46.3917 112.972 46.1095C112.63 45.8274 112.396 45.435 112.312 44.9995C112.227 44.564 112.296 44.1126 112.508 43.7227C112.719 43.3328 113.06 43.0286 113.471 42.8622Z" fill="#E6E6E6"/>
<path d="M106.541 26.5577C106.543 24.4381 107.386 22.406 108.885 20.9073C110.384 19.4085 112.416 18.5654 114.535 18.563H127.744C129.864 18.563 131.898 19.4053 133.397 20.9046C134.896 22.4039 135.739 24.4374 135.739 26.5577C135.739 28.6781 134.896 30.7116 133.397 32.2109C131.898 33.7102 129.864 34.5525 127.744 34.5525H114.535C112.416 34.5501 110.384 33.707 108.885 32.2082C107.386 30.7094 106.543 28.6773 106.541 26.5577Z" fill="#27AE60"/>
<path d="M87.9302 76.0663C89.2564 59.0992 96.0371 51.0151 91.6953 45.9456C87.5364 41.0895 75.8215 42.0927 68.298 46.7524C48.0053 59.3207 40.5708 109.413 66.6844 133.887C91.4988 157.144 138.527 149.695 148.978 130.66C151.417 126.219 153.354 118.433 149.785 113.717C140.924 102.01 108.708 123.215 94.3846 109.952C85.896 102.092 87.2024 85.3778 87.9302 76.0663Z" fill="#3F3D56"/>
<path d="M103.442 67.6369C102.949 67.8636 102.564 68.2737 102.369 68.7799C102.174 69.2861 102.184 69.8485 102.397 70.3474C102.442 70.4481 102.495 70.545 102.556 70.6369L98.2007 76.4526L100.374 79.701L105.479 71.0891C105.841 70.8071 106.099 70.4132 106.214 69.9689C106.328 69.5247 106.292 69.0552 106.111 68.6335C106.006 68.3946 105.855 68.1787 105.667 67.9982C105.478 67.8176 105.256 67.676 105.013 67.5813C104.769 67.4867 104.51 67.4409 104.249 67.4465C103.988 67.4522 103.731 67.5091 103.492 67.6142C103.475 67.6215 103.458 67.6291 103.442 67.6369Z" fill="#FFB6B6"/>
<path d="M103.439 77.6639C103.724 77.9167 102.933 78.2287 102.097 77.7366C101.857 77.594 101.755 77.5349 101.728 77.5725C101.661 77.6666 102.054 78.3605 101.949 79.9015C101.884 80.8212 100.357 82.5505 98.622 84.2367C96.2769 86.5173 93.5499 88.7172 93.5499 88.7172L92.5925 87.9507L82.5532 79.9015L80.8589 77.5564C81.014 76.6303 81.247 75.719 81.5554 74.8321C81.9802 73.6044 82.4851 72.406 83.0669 71.2445C83.3788 70.6125 83.6988 70.0101 84.0054 69.4561L89.3841 75.3834L93.8915 80.3479C93.8915 80.3479 95.2039 78.2341 96.2204 77.6586C96.3501 77.5758 96.4976 77.5251 96.6508 77.5107C97.6781 77.4622 97.7399 76.9029 96.5486 75.6846C95.3572 74.4663 96.8605 75.6039 97.9201 75.2758C98.9797 74.9477 97.9201 75.2758 98.1433 74.4556C98.3666 73.6353 101.338 71.9894 101.338 71.9894L101.462 72.0997L103.708 74.0818L104.35 74.6492C104.35 74.6492 103.648 76.5748 103.455 76.9809C103.261 77.3869 103.156 77.4085 103.439 77.6639Z" fill="#27AE60"/>
<path d="M162.636 115.023L162.745 112.057L151.355 110.223L151.194 114.601L162.636 115.023Z" fill="#FFB6B6"/>
<path d="M160.568 115.916L160.46 111.167L162.49 111.242L165.768 106.851C165.93 106.634 166.157 106.475 166.416 106.396C166.675 106.317 166.952 106.323 167.208 106.413C167.463 106.503 167.683 106.672 167.835 106.896C167.987 107.12 168.064 107.386 168.054 107.657L167.846 113.299L165.801 114.197L167.796 114.651L167.717 116.779L160.568 115.916Z" fill="#2F2E41"/>
<path d="M98.5327 116.178L134.608 117.093C134.608 117.093 150.187 117.993 153.842 115.615L157.697 115.128L157.906 109.467C157.906 109.467 155.549 109.484 154.194 108.853C152.838 108.221 153.78 107.449 152.488 108.208C151.196 108.968 151.333 109.059 150.334 108.71C149.335 108.361 103.526 101.379 103.526 101.379L98.5327 116.178Z" fill="#2F2E41"/>
<path d="M146.071 113.721L148.169 111.621L141.066 102.53L137.97 105.63L146.071 113.721Z" fill="#FFB6B6"/>
<path d="M143.948 111.894L147.099 108.339L148.536 109.775L153.926 108.785C154.192 108.736 154.467 108.774 154.71 108.892C154.954 109.011 155.153 109.204 155.279 109.443C155.405 109.683 155.451 109.956 155.41 110.224C155.369 110.492 155.244 110.739 155.053 110.931L151.063 114.925L148.953 114.193L150.107 115.883L148.602 117.389L143.948 111.894Z" fill="#2F2E41"/>
<path d="M84.2998 96.4209L84.6585 104.758C85.0807 114.572 95.889 120.512 104.27 115.388C104.424 115.293 104.579 115.196 104.735 115.094C104.735 115.094 107.912 114.241 107.816 112.89C107.719 111.539 108.496 110.881 109.182 111.249C109.869 111.618 118.863 98.8541 118.863 98.8541C118.863 98.8541 137.549 108.175 141.671 110.369C141.671 110.369 145.547 104.309 145.266 104.373C144.985 104.436 122.149 88.4533 122.149 88.4533C122.149 88.4533 118.429 84.6882 113.814 87.1741C113.718 87.5393 113.8 87.552 113.8 87.552L98.5559 99.9737L96.4019 95.883L84.2998 96.4209Z" fill="#2F2E41"/>
<path d="M98.6729 85.9982C98.6439 86.3834 98.5891 86.7661 98.5088 87.1439C98.399 87.6907 98.222 88.2219 97.9817 88.7252C97.9817 88.7252 97.9817 89.2873 96.906 91.1699C95.8302 93.0524 97.1749 92.2456 97.9817 93.6441C98.7885 95.0398 97.9817 94.3971 97.0862 95.2953C96.8283 95.5567 96.6452 95.8824 96.5558 96.2385C96.4664 96.5946 96.474 96.9682 96.5779 97.3204C96.5779 97.3204 85.0244 97.3285 82.8729 96.5217C80.7215 95.7149 80.232 91.1699 82.1603 90.7207C84.0858 90.2716 81.5767 89.8252 80.4445 88.7898C79.3122 87.7544 81.5767 86.0601 81.5767 86.0601C81.5767 86.0601 80.6435 84.4492 80.7215 79.0409C80.7325 78.5435 80.7783 78.0474 80.8586 77.5564C81.0138 76.6303 81.2468 75.719 81.5552 74.8321C81.98 73.6044 82.4848 72.406 83.0666 71.2445C83.3785 70.6125 83.6986 70.0101 84.0052 69.4561C84.0536 69.37 84.0993 69.2866 84.1477 69.2033C84.7313 68.1705 85.2638 67.3261 85.6161 66.7855C85.8877 66.366 86.0517 66.1293 86.0517 66.1293L88.0096 62.7246L94.5447 65.7878L94.1736 70.798L95.3004 74.5766L95.8194 76.3166L96.2202 77.6586L96.8387 79.7374C96.8387 79.7374 96.6693 79.7455 96.871 80.0225C97.7999 81.2575 98.4021 82.707 98.6217 84.2367C98.6992 84.8206 98.7163 85.4109 98.6729 85.9982Z" fill="#27AE60"/>
<path d="M117.546 86.5382L117.423 86.4986L101.782 81.4617L107.546 62.5525C107.66 62.1759 107.859 61.8303 108.127 61.5418C108.395 61.2532 108.724 61.0292 109.091 60.8866C109.458 60.744 109.853 60.6866 110.245 60.7186C110.637 60.7506 111.017 60.8713 111.356 61.0715L121.352 66.9771C122.143 67.444 122.745 68.1742 123.053 69.0399C123.36 69.9056 123.354 70.8519 123.034 71.7134L117.546 86.5382Z" fill="#2F2E41"/>
<path d="M117.609 87.7403L101.842 82.6629L107.606 63.7536C107.72 63.3771 107.919 63.0315 108.187 62.7429C108.455 62.4544 108.784 62.2304 109.151 62.0878C109.518 61.9452 109.913 61.8877 110.305 61.9198C110.697 61.9518 111.077 62.0725 111.416 62.2727L121.889 67.5015C123.462 68.4308 123.426 70.8361 122.695 72.8096L117.609 87.7403Z" fill="#27AE60"/>
<path d="M116.031 89.109C115.668 89.3138 115.266 89.4409 114.851 89.4822C114.436 89.5235 114.017 89.478 113.621 89.3487L103.543 86.1032C102.77 85.8506 102.126 85.3056 101.749 84.5847C101.372 83.8638 101.292 83.0241 101.526 82.245L106.579 65.6687C106.68 65.3375 106.846 65.0299 107.067 64.7637C107.289 64.4976 107.561 64.2783 107.868 64.1188C108.176 63.9593 108.512 63.8628 108.857 63.8349C109.202 63.807 109.549 63.8482 109.878 63.9563L120.322 67.3855C120.82 67.5489 121.279 67.8103 121.674 68.1544C122.069 68.4984 122.391 68.9182 122.621 69.3887C122.851 69.8593 122.984 70.3712 123.013 70.8942C123.042 71.4171 122.966 71.9406 122.789 72.4336L117.387 87.4949C117.144 88.1788 116.663 88.752 116.031 89.109Z" fill="#3F3D56"/>
<path d="M94.1755 62.7828C98.1621 62.7828 101.394 59.551 101.394 55.5644C101.394 51.5778 98.1621 48.3459 94.1755 48.3459C90.1888 48.3459 86.957 51.5778 86.957 55.5644C86.957 59.551 90.1888 62.7828 94.1755 62.7828Z" fill="#FFB6B6"/>
<path d="M69.766 62.8916C70.4284 64.1756 71.5146 65.191 72.8403 65.7655C73.3693 66.0065 73.9256 66.1826 74.497 66.2898C74.6585 65.6493 74.917 65.0373 75.2636 64.475C75.1481 65.1088 75.1481 65.7582 75.2636 66.392C76.1341 66.4632 77.0099 66.3545 77.8365 66.0726C78.6484 65.7965 79.3847 65.335 79.9871 64.7247C80.5896 64.1144 81.0414 63.3722 81.307 62.5568C81.882 60.6434 81.2626 58.5998 81.2138 56.6026C81.1636 54.6051 82.1121 52.2161 84.0949 51.969C85.605 51.7805 85.4182 51.9269 86.5033 52.9936C84.9855 54.6796 88.6856 62.1471 90.671 61.8171C91.7936 61.6305 92.6196 60.7393 92.8416 60.7702C93.9784 63.5544 90.5587 67.5029 93.271 68.7992L93.0698 68.5328C91.6501 66.1875 95.8509 62.2262 94.4312 59.8808C94.0354 59.2247 93.6239 58.4555 93.8688 57.7297C94.1012 57.0397 95.2782 56.8213 95.5265 57.4493C95.1228 56.0098 96.2498 54.3201 97.7465 54.1732C99.0763 54.042 98.9995 54.421 100.267 54.7668C100.429 54.2206 100.663 53.6982 100.962 53.2132C100.861 53.7666 100.848 54.3325 100.925 54.8897C101.382 54.9443 101.845 54.8464 102.24 54.6112C103.411 53.9093 103.446 52.0976 102.642 50.995C101.836 49.8921 100.486 49.3476 99.1844 48.9356C99.1724 46.182 91.7631 44.8638 90.4004 47.4239C90.2602 45.351 87.8841 43.9547 85.8372 44.3068C83.7903 44.6589 82.1755 46.3002 81.1909 48.1296C80.2066 49.9576 79.718 52.0044 78.9973 53.9515C78.2767 55.8985 77.2466 57.84 75.5211 58.9953C73.7958 60.1491 71.2317 60.2539 69.7911 58.7584C69.4626 59.3969 69.2891 60.1039 69.2848 60.822C69.2804 61.5401 69.4453 62.2491 69.766 62.8916Z" fill="#2F2E41"/>
<path d="M77.1729 95.9011C77.3222 95.7817 77.4843 95.6791 77.656 95.5951C80.419 94.22 89.011 90.6506 95.7294 90.7971C108.656 91.0789 125.107 105.345 121.278 114.925C118.365 122.215 103.881 126.362 93.309 123.045C78.4978 118.398 72.6516 99.506 77.1729 95.9011Z" fill="#3F3D56"/>
<path d="M23.5092 148.418C19.2853 147.621 15.5464 128.592 23.8568 119.22C26.7041 116.009 30.2557 114.612 34.9799 113.311C62.1713 105.825 82.9106 112.959 85.6976 114.701C88.4784 116.439 93.3534 142.626 87.1195 146.333C83.612 148.418 76.6601 149.461 73.2156 147.028C68.1473 143.448 76.6545 134.161 72.868 127.91C68.5712 120.816 45.9447 118.427 34.6008 125.477C22.4981 132.998 47.4619 152.937 23.5092 148.418Z" fill="#F2F2F2"/>
<path d="M51.7494 116.064H35.6127C31.6291 112.247 28.7809 108.567 31.0612 105.513C31.0612 104.635 31.41 103.793 32.0308 103.173C32.6515 102.552 33.4935 102.203 34.3714 102.203H52.9907C53.8686 102.203 54.7106 102.552 55.3313 103.173C55.9521 103.793 56.3008 104.635 56.3008 105.513C57.169 108.993 55.618 112.511 51.7494 116.064Z" fill="#CCCCCC"/>
<path d="M48.8516 98.036C48.6985 98.043 48.5469 98.0028 48.4174 97.9208C48.2879 97.8389 48.1867 97.719 48.1276 97.5776C48.0685 97.4362 48.0543 97.2801 48.0869 97.1303C48.1194 96.9805 48.1973 96.8444 48.3098 96.7404L48.3611 96.5367C48.3543 96.5204 48.3475 96.5041 48.3407 96.4879C48.1865 96.1235 47.928 95.8129 47.5978 95.595C47.2676 95.3771 46.8803 95.2616 46.4847 95.2631C46.0891 95.2645 45.7027 95.3829 45.3741 95.6033C45.0455 95.8236 44.7894 96.1361 44.6378 96.5016C44.0322 97.9602 43.2611 99.4214 43.0713 100.964C42.9877 101.645 43.0229 102.336 43.1755 103.006C41.7531 99.9031 41.0145 96.5307 41.0097 93.1173C41.0094 92.2607 41.057 91.4048 41.1522 90.5536C41.231 89.8558 41.3402 89.1629 41.4799 88.475C42.2423 84.7425 43.8792 81.2441 46.2562 78.2671C47.4066 77.6394 48.337 76.6741 48.922 75.5013C49.1339 75.0797 49.2837 74.6297 49.3666 74.1652C49.2369 74.1823 48.8773 72.2058 48.9752 72.0845C48.7943 71.8101 48.4706 71.6736 48.2731 71.4058C47.2907 70.0739 45.9373 70.3065 45.2307 72.1164C43.7214 72.8782 43.7067 74.1416 44.6329 75.3566C45.2221 76.1297 45.3031 77.1757 45.8201 78.0033C45.7669 78.0714 45.7115 78.1373 45.6584 78.2054C44.6861 79.4556 43.8386 80.7982 43.1282 82.2137C43.301 80.6279 43.0948 79.0237 42.5266 77.5331C41.9508 76.1439 40.8714 74.974 39.921 73.773C38.7793 72.3305 36.4381 72.9601 36.237 74.7887C36.235 74.8064 36.2331 74.8241 36.2313 74.8418C36.3725 74.9214 36.5107 75.006 36.6459 75.0954C36.8157 75.2089 36.9474 75.371 37.0235 75.5606C37.0996 75.7502 37.1167 75.9583 37.0726 76.1578C37.0284 76.3573 36.9249 76.5387 36.7759 76.6784C36.6268 76.8181 36.439 76.9095 36.2371 76.9406L36.2164 76.9438C36.2667 77.4526 36.3556 77.9569 36.4823 78.4522C35.263 83.1678 37.8955 84.8853 41.6544 84.9625C41.7373 85.005 41.8182 85.0475 41.9012 85.088C41.1874 87.1107 40.7397 89.2175 40.5693 91.3557C40.4729 92.6171 40.4785 93.8843 40.5863 95.1448L40.58 95.1001C40.3076 93.6985 39.5599 92.4337 38.4631 91.5195C36.834 90.1813 34.5324 89.6885 32.7749 88.6128C32.5882 88.4929 32.371 88.4289 32.149 88.4284C31.9271 88.4278 31.7096 88.4908 31.5222 88.6098C31.3349 88.7288 31.1854 88.8989 31.0916 89.1C30.9977 89.3012 30.9634 89.5249 30.9925 89.745C30.9949 89.7606 30.9973 89.7763 30.9997 89.792C31.2617 89.8987 31.5168 90.0216 31.7635 90.16C31.9046 90.2397 32.0428 90.3242 32.1781 90.4136C32.3479 90.5271 32.4795 90.6893 32.5557 90.8788C32.6318 91.0684 32.6489 91.2766 32.6047 91.476C32.5605 91.6755 32.4571 91.8569 32.308 91.9966C32.159 92.1363 31.9712 92.2277 31.7693 92.2588L31.7486 92.262C31.7337 92.2641 31.7209 92.2663 31.706 92.2684C32.1537 93.3372 32.782 94.321 33.5634 95.1767C34.3258 99.2932 37.6005 99.6838 41.1033 98.485H41.1055C41.4898 100.155 42.0466 101.781 42.7671 103.336H48.7029C48.7242 103.27 48.7433 103.202 48.7624 103.136C48.213 103.17 47.6614 103.137 47.12 103.038C47.5604 102.498 48.0008 101.953 48.4412 101.412C48.451 101.402 48.4602 101.392 48.4688 101.381C48.6922 101.104 48.9177 100.83 49.1411 100.553L49.1413 100.553C49.1532 99.7048 49.0557 98.8589 48.8516 98.036Z" fill="#CCCCCC"/>
<path d="M69.0974 115.199C69.1959 115.486 69.3826 115.734 69.6309 115.908C69.8791 116.082 70.176 116.173 70.4791 116.167L76.3989 116.015C76.7041 116.009 76.9993 115.904 77.2402 115.717C77.4811 115.529 77.6548 115.269 77.7354 114.974L78.5731 106.016C78.8703 106.151 79.1939 106.217 79.5201 106.211C80.0925 106.197 80.6357 105.955 81.0303 105.541C81.4249 105.126 81.6385 104.571 81.6241 103.999C81.6098 103.426 81.3686 102.883 80.9537 102.488C80.5388 102.094 79.9841 101.88 79.4117 101.895C79.2813 101.894 79.1513 101.908 79.0238 101.935C78.8851 101.785 78.7165 101.665 78.529 101.585C78.3414 101.504 78.1389 101.463 77.9346 101.465L68.8286 101.7C68.753 101.703 68.6779 101.712 68.604 101.728C68.4043 101.765 68.2149 101.845 68.0485 101.961C67.8821 102.078 67.7427 102.229 67.6395 102.404C67.5363 102.579 67.4718 102.774 67.4504 102.976C67.4289 103.178 67.4509 103.382 67.515 103.575L69.0974 115.199ZM78.7449 105.408L79.341 103.274C79.4088 103.027 79.4104 102.767 79.3455 102.519C79.3744 102.519 79.4 102.506 79.4289 102.506C79.8376 102.497 80.2329 102.651 80.5282 102.934C80.8235 103.216 80.9947 103.605 81.0043 104.013C81.0138 104.422 80.861 104.818 80.5792 105.114C80.2975 105.41 79.9098 105.582 79.5012 105.593C79.237 105.601 78.9755 105.537 78.7449 105.408Z" fill="#CCCCCC"/>
<path d="M68.604 101.728C68.798 102.837 70.9792 103.617 73.6018 103.482C76.0136 103.37 77.9855 102.524 78.3468 101.52C78.2131 101.48 78.0741 101.462 77.9347 101.465L68.8286 101.7C68.7531 101.703 68.6779 101.712 68.604 101.728Z" fill="white"/>
<path d="M0.317035 148.838L199.683 148.92C199.767 148.92 199.848 148.887 199.907 148.827C199.967 148.768 200 148.687 200 148.603C200 148.519 199.967 148.438 199.907 148.379C199.848 148.319 199.767 148.286 199.683 148.286L0.317035 148.204C0.232951 148.204 0.152313 148.238 0.0928572 148.297C0.0334013 148.356 0 148.437 0 148.521C0 148.605 0.0334013 148.686 0.0928572 148.745C0.152313 148.805 0.232951 148.838 0.317035 148.838Z" fill="#CACACA"/>
<path d="M112.135 77.9839C111.593 78.0037 111.08 78.2342 110.705 78.6265C110.331 79.0188 110.124 79.5418 110.129 80.0843C110.131 80.1946 110.143 80.3044 110.164 80.4127L103.907 84.1067L104.665 87.941L112.689 81.9541C113.131 81.8328 113.521 81.5684 113.797 81.2023C114.073 80.8362 114.221 80.3889 114.216 79.9302C114.211 79.6693 114.154 79.4119 114.05 79.1727C113.945 78.9336 113.795 78.7174 113.606 78.5365C113.418 78.3556 113.196 78.2135 112.953 78.1184C112.71 78.0233 112.451 77.9769 112.19 77.9821C112.172 77.9824 112.153 77.983 112.135 77.9839Z" fill="#FFB6B6"/>
<path d="M107.009 86.7899C106.842 86.5657 106.77 86.4719 106.732 86.4976C106.634 86.5567 106.728 87.3489 106.039 88.7296C105.069 90.6694 94.8977 93.6402 94.8977 93.6402L93.6454 91.3475L88.1369 81.2721L86.2383 73.1964C86.1719 72.9148 86.1396 72.6262 86.1422 72.3369C87.8351 71.1457 89.6328 70.1109 91.5132 69.2454C92.2646 69.6716 92.8374 70.354 93.1269 71.1679L96.9187 81.7996L98.4317 86.0445C98.4317 86.0445 101.101 84.1359 102.069 84.4862C103.036 84.8388 103.31 84.3445 102.678 82.7622C102.047 81.1799 102.995 82.8087 104.099 82.9122C105.204 83.0172 104.099 82.9122 104.621 82.2407C105.143 81.5693 108.52 81.1915 108.52 81.1915L108.592 81.3414L109.901 84.0334L110.275 84.8069C110.275 84.8069 108.888 86.3122 108.553 86.6122C108.217 86.9144 108.113 86.8935 108.278 87.2377C108.44 87.5805 107.591 87.5649 107.009 86.7899Z" fill="#27AE60"/>
</g>
<defs>
<clipPath id="clip0_6_359">
<rect width="200" height="148.154" fill="white" transform="translate(0 0.923096)"/>
</clipPath>
</defs>
</svg>
