<svg width="400" height="349" viewBox="0 0 400 349" fill="none" xmlns="http://www.w3.org/2000/svg">
<path d="M360.655 181.316C360.708 224.427 344.044 265.88 314.167 296.96C312.366 298.846 310.516 300.686 308.618 302.481C305.726 305.232 302.736 307.877 299.649 310.415C270.775 334.204 234.728 347.573 197.324 348.363C196.077 348.391 194.826 348.405 193.571 348.405C163.74 348.405 126.22 332.472 92.1713 310.415C89.3543 308.59 86.5623 306.723 83.7954 304.814C82.5021 303.93 81.2151 303.033 79.9343 302.124C66.8021 292.851 54.337 282.668 42.6309 271.649C34.9665 264.456 27.7793 256.771 21.1151 248.642C-5.04715 216.371 -10.8176 187.293 26.4811 181.316C30.8972 180.61 35.1831 179.856 39.3389 179.054C45.3586 177.897 51.1197 176.647 56.622 175.305C64.0338 173.504 70.9973 171.551 77.5124 169.445C79.7039 168.74 81.8453 168.021 83.9365 167.287C114.853 156.428 135.546 142.267 149.631 126.903C152.02 124.302 154.223 121.67 156.239 119.007C159.323 114.953 162.125 110.691 164.624 106.253C168.074 100.085 170.971 93.6249 173.282 86.9471L173.409 86.5803C184.616 54.2525 181.207 24.2668 193.571 14.2308C246.422 -28.6738 312.22 32.4263 343.104 104.48C344.661 108.11 346.125 111.763 347.497 115.437C348.113 117.079 348.707 118.723 349.279 120.371C350.784 124.664 352.149 128.969 353.375 133.285C353.846 134.931 354.294 136.575 354.72 138.218C355.177 139.991 355.614 141.759 356.018 143.528C359.024 156.475 360.655 169.243 360.655 181.316Z" fill="#F2F2F2"/>
<path d="M197.324 348.363C196.077 348.391 194.826 348.405 193.571 348.405C163.74 348.405 126.22 332.472 92.1713 310.415C89.3543 308.59 86.5623 306.723 83.7954 304.814L86.2221 290.047L159.686 280.293L196.557 308.487L197.324 348.363Z" fill="#2F2E41"/>
<path d="M200.86 84.6757H190.391C190.067 84.6758 189.756 84.8047 189.527 85.0339C189.298 85.2632 189.169 85.5741 189.169 85.8984V96.3717C189.169 96.532 189.201 96.6907 189.262 96.8387C189.324 96.9868 189.414 97.1212 189.528 97.2343C189.641 97.3475 189.776 97.4371 189.924 97.4981C190.072 97.5591 190.231 97.5903 190.391 97.5898H200.86C201.184 97.5899 201.494 97.4618 201.723 97.2335C201.952 97.0051 202.082 96.6952 202.083 96.3717V85.8984C202.082 85.5744 201.953 85.2639 201.724 85.0348C201.495 84.8057 201.184 84.6766 200.86 84.6757Z" fill="white"/>
<path d="M200.86 102.523H190.391C190.067 102.523 189.756 102.652 189.527 102.881C189.298 103.111 189.169 103.422 189.169 103.746V114.219C189.169 114.38 189.201 114.538 189.262 114.686C189.324 114.834 189.414 114.969 189.528 115.082C189.641 115.195 189.776 115.285 189.924 115.346C190.072 115.407 190.231 115.438 190.391 115.437H200.86C201.184 115.437 201.494 115.309 201.723 115.081C201.952 114.853 202.082 114.543 202.083 114.219V103.746C202.082 103.422 201.953 103.111 201.724 102.882C201.495 102.653 201.184 102.524 200.86 102.523Z" fill="#E6E6E6"/>
<path d="M200.86 120.371H190.391C190.067 120.371 189.756 120.5 189.527 120.729C189.298 120.958 189.169 121.269 189.169 121.593V132.062C189.168 132.223 189.2 132.382 189.261 132.53C189.323 132.679 189.413 132.814 189.526 132.927C189.64 133.041 189.775 133.131 189.923 133.192C190.072 133.254 190.231 133.285 190.391 133.285H200.86C201.184 133.285 201.495 133.156 201.725 132.927C201.954 132.697 202.083 132.386 202.083 132.062V121.593C202.082 121.269 201.953 120.959 201.724 120.73C201.495 120.501 201.184 120.372 200.86 120.371Z" fill="#E6E6E6"/>
<path d="M202.064 139.225C202.012 138.943 201.863 138.688 201.643 138.505C201.424 138.321 201.147 138.22 200.86 138.218H190.391C190.067 138.218 189.756 138.347 189.527 138.577C189.298 138.806 189.169 139.117 189.169 139.441V149.91C189.168 150.07 189.2 150.229 189.261 150.378C189.323 150.526 189.413 150.661 189.526 150.775C189.64 150.889 189.775 150.979 189.923 151.04C190.072 151.101 190.231 151.133 190.391 151.132H200.86C201.184 151.132 201.495 151.003 201.725 150.774C201.954 150.545 202.083 150.234 202.083 149.91V139.441C202.084 139.368 202.078 139.296 202.064 139.225Z" fill="#E6E6E6"/>
<path d="M201.335 156.16C201.185 156.098 201.023 156.066 200.86 156.066H190.391C190.231 156.065 190.072 156.097 189.923 156.158C189.775 156.219 189.64 156.31 189.526 156.423C189.413 156.537 189.323 156.672 189.261 156.82C189.2 156.969 189.169 157.128 189.169 157.288V167.757C189.168 167.918 189.199 168.077 189.26 168.226C189.322 168.375 189.412 168.51 189.525 168.623C189.639 168.737 189.774 168.827 189.923 168.888C190.071 168.95 190.231 168.981 190.391 168.98H200.86C201.184 168.98 201.495 168.851 201.725 168.622C201.954 168.392 202.083 168.081 202.083 167.757V157.288C202.082 157.048 202.011 156.813 201.878 156.612C201.745 156.411 201.557 156.254 201.335 156.16Z" fill="#E6E6E6"/>
<path d="M222.851 84.6757H212.382C212.058 84.6758 211.747 84.8047 211.518 85.0339C211.289 85.2632 211.16 85.5741 211.16 85.8984V96.3717C211.16 96.532 211.192 96.6907 211.253 96.8387C211.315 96.9868 211.405 97.1212 211.518 97.2343C211.632 97.3475 211.767 97.4371 211.915 97.4981C212.063 97.5591 212.222 97.5903 212.382 97.5898H222.851C223.174 97.5899 223.485 97.4618 223.714 97.2335C223.943 97.0051 224.073 96.6952 224.074 96.3717V85.8984C224.073 85.5744 223.944 85.2639 223.715 85.0348C223.485 84.8057 223.175 84.6766 222.851 84.6757Z" fill="#E6E6E6"/>
<path d="M222.851 102.523H212.382C212.058 102.523 211.747 102.652 211.518 102.881C211.289 103.111 211.16 103.422 211.16 103.746V114.219C211.16 114.38 211.192 114.538 211.253 114.686C211.315 114.834 211.405 114.969 211.518 115.082C211.632 115.195 211.767 115.285 211.915 115.346C212.063 115.407 212.222 115.438 212.382 115.437H222.851C223.174 115.437 223.485 115.309 223.714 115.081C223.943 114.853 224.073 114.543 224.074 114.219V103.746C224.073 103.422 223.944 103.111 223.715 102.882C223.485 102.653 223.175 102.524 222.851 102.523Z" fill="#27AE60"/>
<path d="M222.851 120.371H212.382C212.058 120.371 211.747 120.5 211.518 120.729C211.289 120.958 211.16 121.269 211.16 121.593V132.062C211.159 132.223 211.191 132.382 211.252 132.53C211.313 132.679 211.403 132.814 211.517 132.927C211.631 133.041 211.766 133.131 211.914 133.192C212.062 133.254 212.222 133.285 212.382 133.285H222.851C223.175 133.285 223.486 133.156 223.715 132.927C223.945 132.697 224.074 132.386 224.074 132.062V121.593C224.073 121.269 223.944 120.959 223.715 120.73C223.485 120.501 223.175 120.372 222.851 120.371Z" fill="#27AE60"/>
<path d="M222.851 138.218H212.382C212.126 138.218 211.876 138.299 211.668 138.45C211.461 138.6 211.306 138.812 211.225 139.055C211.182 139.179 211.16 139.31 211.16 139.441V149.91C211.159 150.07 211.191 150.229 211.252 150.378C211.313 150.526 211.403 150.661 211.517 150.775C211.631 150.889 211.765 150.979 211.914 151.04C212.062 151.101 212.222 151.133 212.382 151.132H222.851C223.175 151.132 223.486 151.003 223.715 150.774C223.945 150.545 224.074 150.234 224.074 149.91V139.441C224.073 139.117 223.944 138.806 223.715 138.577C223.485 138.348 223.175 138.219 222.851 138.218Z" fill="#27AE60"/>
<path d="M222.851 156.066H212.382C212.222 156.065 212.062 156.097 211.914 156.158C211.766 156.219 211.631 156.31 211.517 156.423C211.403 156.537 211.313 156.672 211.252 156.82C211.191 156.969 211.159 157.128 211.16 157.288V167.757C211.159 167.918 211.191 168.077 211.252 168.225C211.313 168.374 211.403 168.509 211.517 168.622C211.631 168.736 211.766 168.826 211.914 168.888C212.062 168.949 212.222 168.98 212.382 168.98H222.851C223.175 168.98 223.486 168.851 223.715 168.622C223.945 168.392 224.074 168.081 224.074 167.757V157.288C224.074 156.964 223.945 156.653 223.715 156.424C223.486 156.195 223.175 156.066 222.851 156.066Z" fill="#E6E6E6"/>
<path d="M244.842 84.6757H234.373C234.049 84.6758 233.738 84.8047 233.509 85.0339C233.279 85.2632 233.151 85.5741 233.15 85.8984V96.3717C233.151 96.532 233.182 96.6907 233.244 96.8387C233.305 96.9868 233.396 97.1212 233.509 97.2343C233.623 97.3475 233.757 97.4371 233.906 97.4981C234.054 97.5591 234.213 97.5903 234.373 97.5898H244.842C245.165 97.5899 245.476 97.4618 245.705 97.2335C245.934 97.0051 246.063 96.6952 246.065 96.3717V85.8984C246.064 85.5744 245.934 85.2639 245.705 85.0348C245.476 84.8057 245.166 84.6766 244.842 84.6757Z" fill="#27AE60"/>
<path d="M244.842 102.523H234.373C234.049 102.523 233.738 102.652 233.509 102.881C233.279 103.111 233.151 103.422 233.15 103.746V114.219C233.151 114.38 233.182 114.538 233.244 114.686C233.305 114.834 233.396 114.969 233.509 115.082C233.623 115.195 233.757 115.285 233.906 115.346C234.054 115.407 234.213 115.438 234.373 115.437H244.842C245.165 115.437 245.476 115.309 245.705 115.081C245.934 114.853 246.063 114.543 246.065 114.219V103.746C246.064 103.422 245.934 103.111 245.705 102.882C245.476 102.653 245.166 102.524 244.842 102.523Z" fill="#27AE60"/>
<path d="M244.842 120.371H234.373C234.049 120.371 233.738 120.5 233.509 120.729C233.279 120.958 233.151 121.269 233.15 121.593V132.062C233.15 132.223 233.181 132.382 233.243 132.53C233.304 132.679 233.394 132.814 233.508 132.927C233.621 133.041 233.756 133.131 233.905 133.192C234.053 133.254 234.212 133.285 234.373 133.285H244.842C245.166 133.285 245.477 133.156 245.706 132.927C245.935 132.697 246.064 132.386 246.065 132.062V121.593C246.064 121.269 245.934 120.959 245.705 120.73C245.476 120.501 245.166 120.372 244.842 120.371Z" fill="#E6E6E6"/>
<path d="M244.842 138.218H234.373C234.049 138.218 233.738 138.347 233.509 138.577C233.279 138.806 233.151 139.117 233.15 139.441V149.91C233.15 150.07 233.181 150.229 233.243 150.378C233.304 150.526 233.394 150.661 233.508 150.775C233.621 150.889 233.756 150.979 233.905 151.04C234.053 151.101 234.212 151.133 234.373 151.132H244.842C245.166 151.132 245.477 151.003 245.706 150.774C245.936 150.545 246.064 150.234 246.065 149.91V139.441C246.064 139.117 245.934 138.806 245.705 138.577C245.476 138.348 245.166 138.219 244.842 138.218Z" fill="#27AE60"/>
<path d="M244.842 156.066H234.373C234.212 156.065 234.053 156.097 233.905 156.158C233.756 156.219 233.621 156.31 233.508 156.423C233.394 156.537 233.304 156.672 233.243 156.82C233.181 156.969 233.15 157.128 233.15 157.288V167.757C233.15 167.918 233.181 168.077 233.243 168.225C233.304 168.374 233.394 168.509 233.508 168.622C233.621 168.736 233.756 168.826 233.905 168.888C234.053 168.949 234.212 168.98 234.373 168.98H244.842C245.166 168.98 245.477 168.851 245.706 168.622C245.936 168.392 246.064 168.081 246.065 167.757V157.288C246.064 156.964 245.936 156.653 245.706 156.424C245.477 156.195 245.166 156.066 244.842 156.066Z" fill="#27AE60"/>
<path d="M266.833 84.6757H256.364C256.04 84.6758 255.729 84.8047 255.499 85.0339C255.27 85.2632 255.141 85.5741 255.141 85.8984V96.3717C255.141 96.532 255.173 96.6907 255.235 96.8387C255.296 96.9868 255.386 97.1212 255.5 97.2343C255.613 97.3475 255.748 97.4371 255.896 97.4981C256.045 97.5591 256.204 97.5903 256.364 97.5898H266.833C267.156 97.5899 267.466 97.4618 267.696 97.2335C267.925 97.0051 268.054 96.6952 268.055 96.3717V85.8984C268.054 85.5744 267.925 85.2639 267.696 85.0348C267.467 84.8057 267.157 84.6766 266.833 84.6757Z" fill="#27AE60"/>
<path d="M266.833 102.523H256.364C256.04 102.523 255.729 102.652 255.499 102.881C255.27 103.111 255.141 103.422 255.141 103.746V114.219C255.141 114.38 255.173 114.538 255.235 114.686C255.296 114.834 255.386 114.969 255.5 115.082C255.613 115.195 255.748 115.285 255.896 115.346C256.045 115.407 256.204 115.438 256.364 115.437H266.833C267.156 115.437 267.466 115.309 267.696 115.081C267.925 114.853 268.054 114.543 268.055 114.219V103.746C268.054 103.422 267.925 103.111 267.696 102.882C267.467 102.653 267.157 102.524 266.833 102.523Z" fill="white"/>
<path d="M266.833 120.371H256.364C256.04 120.371 255.729 120.5 255.499 120.729C255.27 120.958 255.141 121.269 255.141 121.593V132.062C255.141 132.223 255.172 132.382 255.234 132.53C255.295 132.679 255.385 132.814 255.499 132.927C255.612 133.041 255.747 133.131 255.896 133.192C256.044 133.254 256.203 133.285 256.364 133.285H266.833C267.157 133.285 267.468 133.156 267.697 132.927C267.926 132.697 268.055 132.386 268.055 132.062V121.593C268.054 121.269 267.925 120.959 267.696 120.73C267.467 120.501 267.157 120.372 266.833 120.371Z" fill="white"/>
<path d="M266.833 138.218H256.364C256.04 138.218 255.729 138.347 255.499 138.577C255.27 138.806 255.141 139.117 255.141 139.441V149.91C255.141 150.07 255.172 150.229 255.234 150.378C255.295 150.526 255.385 150.661 255.499 150.775C255.612 150.889 255.747 150.979 255.896 151.04C256.044 151.101 256.203 151.133 256.364 151.132H266.833C267.157 151.132 267.468 151.003 267.697 150.774C267.926 150.545 268.055 150.234 268.055 149.91V139.441C268.054 139.117 267.925 138.806 267.696 138.577C267.467 138.348 267.157 138.219 266.833 138.218Z" fill="#E6E6E6"/>
<path d="M266.833 156.066H256.364C256.203 156.065 256.044 156.097 255.896 156.158C255.747 156.219 255.612 156.31 255.499 156.423C255.385 156.537 255.295 156.672 255.234 156.82C255.172 156.969 255.141 157.128 255.141 157.288V167.757C255.141 167.918 255.172 168.077 255.234 168.225C255.295 168.374 255.385 168.509 255.499 168.622C255.612 168.736 255.747 168.826 255.896 168.888C256.044 168.949 256.203 168.98 256.364 168.98H266.833C267.157 168.98 267.468 168.851 267.697 168.622C267.926 168.392 268.055 168.081 268.055 167.757V157.288C268.055 156.964 267.926 156.653 267.697 156.424C267.468 156.195 267.157 156.066 266.833 156.066Z" fill="#27AE60"/>
<path d="M288.823 84.6757H278.35C278.026 84.6768 277.717 84.8061 277.488 85.0353C277.26 85.2645 277.132 85.5748 277.132 85.8984V96.3717C277.132 96.6947 277.26 97.0045 277.489 97.233C277.717 97.4614 278.027 97.5897 278.35 97.5898H288.823C289.147 97.5899 289.457 97.4618 289.686 97.2335C289.916 97.0051 290.045 96.6952 290.046 96.3717V85.8984C290.045 85.5744 289.916 85.2639 289.687 85.0348C289.458 84.8057 289.147 84.6766 288.823 84.6757Z" fill="white"/>
<path d="M288.823 102.523H278.35C278.026 102.524 277.717 102.654 277.488 102.883C277.26 103.112 277.132 103.422 277.132 103.746V114.219C277.132 114.542 277.26 114.852 277.489 115.081C277.717 115.309 278.027 115.437 278.35 115.437H288.823C289.147 115.437 289.457 115.309 289.686 115.081C289.916 114.853 290.045 114.543 290.046 114.219V103.746C290.045 103.422 289.916 103.111 289.687 102.882C289.458 102.653 289.147 102.524 288.823 102.523Z" fill="white"/>
<path d="M288.823 120.371H278.35C278.026 120.372 277.717 120.501 277.488 120.73C277.26 120.96 277.132 121.27 277.132 121.593V132.062C277.131 132.222 277.163 132.381 277.224 132.53C277.285 132.678 277.374 132.812 277.487 132.926C277.6 133.04 277.735 133.13 277.883 133.191C278.031 133.253 278.19 133.285 278.35 133.285H288.823C289.148 133.285 289.458 133.156 289.688 132.927C289.917 132.697 290.046 132.386 290.046 132.062V121.593C290.045 121.269 289.916 120.959 289.687 120.73C289.458 120.501 289.147 120.372 288.823 120.371Z" fill="white"/>
<path d="M288.823 138.218H278.35C278.026 138.219 277.717 138.349 277.488 138.578C277.26 138.807 277.132 139.117 277.132 139.441V149.91C277.131 150.07 277.163 150.229 277.224 150.377C277.285 150.525 277.374 150.66 277.487 150.774C277.6 150.887 277.735 150.977 277.883 151.039C278.031 151.1 278.19 151.132 278.35 151.132H288.823C289.148 151.132 289.458 151.003 289.688 150.774C289.917 150.545 290.046 150.234 290.046 149.91V139.441C290.045 139.117 289.916 138.806 289.687 138.577C289.458 138.348 289.147 138.219 288.823 138.218Z" fill="#27AE60"/>
<path d="M288.823 156.066H278.35C278.19 156.066 278.031 156.098 277.883 156.159C277.735 156.221 277.6 156.311 277.487 156.425C277.374 156.538 277.285 156.673 277.224 156.821C277.163 156.969 277.131 157.128 277.132 157.288V167.757C277.131 167.917 277.163 168.076 277.224 168.225C277.285 168.373 277.374 168.508 277.487 168.621C277.6 168.735 277.735 168.825 277.883 168.886C278.031 168.948 278.19 168.98 278.35 168.98H288.823C289.148 168.98 289.458 168.851 289.688 168.622C289.917 168.392 290.046 168.081 290.046 167.757V157.288C290.046 156.964 289.917 156.653 289.688 156.424C289.458 156.195 289.148 156.066 288.823 156.066Z" fill="#E6E6E6"/>
<path d="M310.814 84.6757H300.341C300.017 84.6768 299.707 84.8061 299.479 85.0353C299.251 85.2645 299.123 85.5748 299.123 85.8984V96.3717C299.123 96.6947 299.251 97.0045 299.479 97.233C299.708 97.4614 300.018 97.5897 300.341 97.5898H310.814C311.138 97.5899 311.448 97.4618 311.677 97.2334C311.906 97.0051 312.036 96.6952 312.037 96.3717V85.8984C312.036 85.5744 311.907 85.2639 311.678 85.0348C311.449 84.8057 311.138 84.6766 310.814 84.6757Z" fill="white"/>
<path d="M310.814 102.523H300.341C300.017 102.524 299.707 102.654 299.479 102.883C299.251 103.112 299.123 103.422 299.123 103.746V114.219C299.123 114.542 299.251 114.852 299.479 115.081C299.708 115.309 300.018 115.437 300.341 115.437H310.814C311.138 115.437 311.448 115.309 311.677 115.081C311.906 114.853 312.036 114.543 312.037 114.219V103.746C312.036 103.422 311.907 103.111 311.678 102.882C311.449 102.653 311.138 102.524 310.814 102.523Z" fill="white"/>
<path d="M310.814 120.371H300.341C300.017 120.372 299.707 120.501 299.479 120.73C299.251 120.96 299.123 121.27 299.123 121.593V132.062C299.122 132.222 299.153 132.381 299.214 132.53C299.275 132.678 299.365 132.812 299.478 132.926C299.591 133.04 299.726 133.13 299.874 133.191C300.022 133.253 300.18 133.285 300.341 133.285H310.814C311.138 133.285 311.449 133.156 311.679 132.927C311.908 132.697 312.037 132.386 312.037 132.062V121.593C312.036 121.269 311.907 120.959 311.678 120.73C311.449 120.501 311.138 120.372 310.814 120.371Z" fill="#27AE60"/>
<path d="M310.814 138.218H300.341C300.017 138.219 299.707 138.349 299.479 138.578C299.251 138.807 299.123 139.117 299.123 139.441V149.91C299.122 150.07 299.153 150.229 299.214 150.377C299.275 150.525 299.365 150.66 299.478 150.774C299.591 150.887 299.726 150.977 299.874 151.039C300.022 151.1 300.18 151.132 300.341 151.132H310.814C311.138 151.132 311.449 151.003 311.679 150.774C311.908 150.545 312.037 150.234 312.037 149.91V139.441C312.036 139.117 311.907 138.807 311.678 138.577C311.449 138.348 311.138 138.219 310.814 138.218Z" fill="#E6E6E6"/>
<path d="M310.814 156.066H300.341C300.18 156.066 300.022 156.098 299.874 156.159C299.726 156.221 299.591 156.311 299.478 156.425C299.365 156.538 299.275 156.673 299.214 156.821C299.153 156.969 299.122 157.128 299.123 157.288V167.757C299.122 167.917 299.153 168.076 299.214 168.225C299.275 168.373 299.365 168.508 299.478 168.621C299.591 168.735 299.726 168.825 299.874 168.886C300.022 168.948 300.18 168.98 300.341 168.98H310.814C311.138 168.98 311.449 168.851 311.679 168.622C311.908 168.392 312.037 168.081 312.037 167.757V157.288C312.037 156.964 311.908 156.653 311.679 156.424C311.449 156.195 311.138 156.066 310.814 156.066Z" fill="white"/>
<path d="M332.805 84.6757H322.332C322.008 84.6768 321.698 84.8061 321.47 85.0353C321.241 85.2645 321.113 85.5748 321.113 85.8984V96.3717C321.113 96.6947 321.242 97.0045 321.47 97.233C321.699 97.4614 322.008 97.5897 322.332 97.5898H332.805C333.128 97.5899 333.439 97.4618 333.668 97.2334C333.897 97.0051 334.027 96.6952 334.028 96.3717V85.8984C334.027 85.5744 333.898 85.2639 333.668 85.0348C333.439 84.8057 333.129 84.6766 332.805 84.6757Z" fill="#27AE60"/>
<path d="M332.805 102.523H322.332C322.008 102.524 321.698 102.654 321.47 102.883C321.241 103.112 321.113 103.422 321.113 103.746V114.219C321.113 114.542 321.242 114.852 321.47 115.081C321.699 115.309 322.008 115.437 322.332 115.437H332.805C333.128 115.437 333.439 115.309 333.668 115.081C333.897 114.853 334.027 114.543 334.028 114.219V103.746C334.027 103.422 333.898 103.111 333.668 102.882C333.439 102.653 333.129 102.524 332.805 102.523Z" fill="#27AE60"/>
<path d="M332.805 120.371H322.332C322.008 120.372 321.698 120.501 321.47 120.73C321.241 120.96 321.113 121.27 321.113 121.593V132.062C321.113 132.222 321.144 132.381 321.205 132.53C321.266 132.678 321.356 132.812 321.469 132.926C321.582 133.04 321.716 133.13 321.865 133.191C322.013 133.253 322.171 133.285 322.332 133.285H332.805C333.129 133.285 333.44 133.156 333.669 132.927C333.899 132.697 334.027 132.386 334.028 132.062V121.593C334.027 121.269 333.898 120.959 333.668 120.73C333.439 120.501 333.129 120.372 332.805 120.371Z" fill="#E6E6E6"/>
<path d="M332.805 138.218H322.332C322.008 138.219 321.698 138.349 321.47 138.578C321.242 138.807 321.113 139.117 321.113 139.441V149.91C321.113 150.07 321.144 150.229 321.205 150.377C321.266 150.525 321.356 150.66 321.469 150.774C321.582 150.887 321.716 150.977 321.865 151.039C322.013 151.1 322.171 151.132 322.332 151.132H332.805C333.129 151.132 333.44 151.003 333.669 150.774C333.899 150.545 334.027 150.234 334.028 149.91V139.441C334.027 139.117 333.898 138.807 333.668 138.577C333.439 138.348 333.129 138.219 332.805 138.218Z" fill="white"/>
<path d="M332.805 156.066H322.332C322.171 156.066 322.013 156.098 321.865 156.159C321.716 156.221 321.582 156.311 321.469 156.425C321.356 156.538 321.266 156.673 321.205 156.821C321.144 156.969 321.113 157.128 321.113 157.288V167.757C321.113 167.917 321.144 168.076 321.205 168.225C321.266 168.373 321.356 168.508 321.469 168.621C321.582 168.735 321.716 168.825 321.865 168.886C322.013 168.948 322.171 168.98 322.332 168.98H332.805C333.129 168.98 333.44 168.851 333.669 168.622C333.899 168.392 334.027 168.081 334.028 167.757V157.288C334.027 156.964 333.899 156.653 333.669 156.424C333.44 156.195 333.129 156.066 332.805 156.066Z" fill="#27AE60"/>
<path d="M354.796 84.6757H344.322C343.999 84.6768 343.689 84.8061 343.461 85.0353C343.232 85.2645 343.104 85.5748 343.104 85.8984V96.3717C343.104 96.6947 343.233 97.0045 343.461 97.233C343.689 97.4614 343.999 97.5897 344.322 97.5898H354.796C355.119 97.5899 355.43 97.4618 355.659 97.2334C355.888 97.0051 356.017 96.6952 356.018 96.3717V85.8984C356.017 85.5744 355.888 85.2639 355.659 85.0348C355.43 84.8057 355.12 84.6766 354.796 84.6757Z" fill="#27AE60"/>
<path d="M354.796 102.523H344.322C343.999 102.524 343.689 102.654 343.461 102.883C343.232 103.112 343.104 103.422 343.104 103.746V114.219C343.104 114.542 343.233 114.852 343.461 115.081C343.689 115.309 343.999 115.437 344.322 115.437H354.796C355.119 115.437 355.43 115.309 355.659 115.081C355.888 114.853 356.017 114.543 356.018 114.219V103.746C356.017 103.422 355.888 103.111 355.659 102.882C355.43 102.653 355.12 102.524 354.796 102.523Z" fill="#27AE60"/>
<path d="M354.796 120.371H344.322C343.999 120.372 343.689 120.501 343.461 120.73C343.232 120.96 343.104 121.27 343.104 121.593V132.062C343.104 132.222 343.135 132.381 343.196 132.53C343.257 132.678 343.347 132.812 343.46 132.926C343.573 133.04 343.707 133.13 343.855 133.191C344.003 133.253 344.162 133.285 344.322 133.285H354.796C355.12 133.285 355.431 133.156 355.66 132.927C355.889 132.697 356.018 132.386 356.018 132.062V121.593C356.017 121.269 355.888 120.959 355.659 120.73C355.43 120.501 355.12 120.372 354.796 120.371Z" fill="#E6E6E6"/>
<path d="M354.796 138.218H344.322C343.999 138.219 343.689 138.349 343.461 138.578C343.232 138.807 343.104 139.117 343.104 139.441V149.91C343.104 150.07 343.135 150.229 343.196 150.377C343.257 150.525 343.347 150.66 343.46 150.774C343.573 150.887 343.707 150.977 343.855 151.039C344.003 151.1 344.162 151.132 344.322 151.132H354.796C355.12 151.132 355.431 151.003 355.66 150.774C355.889 150.545 356.018 150.234 356.018 149.91V139.441C356.017 139.117 355.888 138.807 355.659 138.577C355.43 138.348 355.12 138.219 354.796 138.218Z" fill="#27AE60"/>
<path d="M354.796 156.066H344.322C344.162 156.066 344.003 156.098 343.855 156.159C343.707 156.221 343.573 156.311 343.46 156.425C343.347 156.538 343.257 156.673 343.196 156.821C343.135 156.969 343.104 157.128 343.104 157.288V167.757C343.104 167.917 343.135 168.076 343.196 168.225C343.257 168.373 343.347 168.508 343.46 168.621C343.573 168.735 343.707 168.825 343.855 168.886C344.003 168.948 344.162 168.98 344.322 168.98H354.796C355.12 168.98 355.431 168.851 355.66 168.622C355.889 168.392 356.018 168.081 356.018 167.757V157.288C356.018 156.964 355.889 156.653 355.66 156.424C355.431 156.195 355.12 156.066 354.796 156.066Z" fill="#27AE60"/>
<path d="M376.786 84.6757H366.313C365.99 84.6768 365.68 84.8061 365.451 85.0353C365.223 85.2645 365.095 85.5748 365.095 85.8984V96.3717C365.095 96.6947 365.223 97.0045 365.452 97.233C365.68 97.4614 365.99 97.5897 366.313 97.5898H376.786C377.11 97.5899 377.42 97.4618 377.65 97.2334C377.879 97.0051 378.008 96.6952 378.009 96.3717V85.8984C378.008 85.5744 377.879 85.2639 377.65 85.0348C377.421 84.8057 377.11 84.6766 376.786 84.6757Z" fill="#E6E6E6"/>
<path d="M376.786 102.523H366.313C365.99 102.524 365.68 102.654 365.451 102.883C365.223 103.112 365.095 103.422 365.095 103.746V114.219C365.095 114.542 365.223 114.852 365.452 115.081C365.68 115.309 365.99 115.437 366.313 115.437H376.786C377.11 115.437 377.42 115.309 377.65 115.081C377.879 114.853 378.008 114.543 378.009 114.219V103.746C378.008 103.422 377.879 103.111 377.65 102.882C377.421 102.653 377.11 102.524 376.786 102.523Z" fill="#27AE60"/>
<path d="M376.786 120.371H366.313C365.99 120.372 365.68 120.501 365.451 120.73C365.223 120.96 365.095 121.27 365.095 121.593V132.062C365.095 132.222 365.126 132.381 365.187 132.53C365.248 132.678 365.337 132.812 365.451 132.926C365.564 133.04 365.698 133.13 365.846 133.191C365.994 133.253 366.153 133.285 366.313 133.285H376.786C377.111 133.285 377.422 133.156 377.651 132.927C377.88 132.697 378.009 132.386 378.009 132.062V121.593C378.008 121.269 377.879 120.959 377.65 120.73C377.421 120.501 377.11 120.372 376.786 120.371Z" fill="#27AE60"/>
<path d="M376.786 138.218H366.313C365.99 138.219 365.68 138.349 365.451 138.578C365.223 138.807 365.095 139.117 365.095 139.441V149.91C365.095 150.07 365.126 150.229 365.187 150.377C365.248 150.525 365.337 150.66 365.451 150.774C365.564 150.887 365.698 150.977 365.846 151.039C365.994 151.1 366.153 151.132 366.313 151.132H376.786C377.111 151.132 377.422 151.003 377.651 150.774C377.88 150.545 378.009 150.234 378.009 149.91V139.441C378.008 139.117 377.879 138.807 377.65 138.577C377.421 138.348 377.11 138.219 376.786 138.218Z" fill="#27AE60"/>
<path d="M376.786 156.066H366.313C366.153 156.066 365.994 156.098 365.846 156.159C365.698 156.221 365.564 156.311 365.451 156.425C365.337 156.538 365.248 156.673 365.187 156.821C365.126 156.969 365.095 157.128 365.095 157.288V167.757C365.095 167.917 365.126 168.076 365.187 168.225C365.248 168.373 365.337 168.508 365.451 168.621C365.564 168.735 365.698 168.825 365.846 168.886C365.994 168.948 366.153 168.98 366.313 168.98H376.786C377.111 168.98 377.422 168.851 377.651 168.622C377.88 168.392 378.009 168.081 378.009 167.757V157.288C378.009 156.964 377.88 156.653 377.651 156.424C377.422 156.195 377.111 156.066 376.786 156.066Z" fill="#E6E6E6"/>
<path d="M398.777 84.6757H388.304C387.98 84.6768 387.67 84.8061 387.442 85.0353C387.214 85.2645 387.086 85.5748 387.086 85.8984V96.3717C387.086 96.6948 387.214 97.0045 387.443 97.233C387.671 97.4614 387.981 97.5897 388.304 97.5898H398.777C399.101 97.5899 399.411 97.4618 399.64 97.2334C399.87 97.0051 399.999 96.6952 400 96.3717V85.8984C399.999 85.5744 399.87 85.2639 399.641 85.0348C399.412 84.8057 399.101 84.6766 398.777 84.6757Z" fill="#E6E6E6"/>
<path d="M398.777 102.523H388.304C387.98 102.524 387.67 102.654 387.442 102.883C387.214 103.112 387.086 103.422 387.086 103.746V114.219C387.086 114.542 387.214 114.852 387.443 115.081C387.671 115.309 387.981 115.437 388.304 115.437H398.777C399.101 115.437 399.411 115.309 399.64 115.081C399.87 114.853 399.999 114.543 400 114.219V103.746C399.999 103.422 399.87 103.111 399.641 102.882C399.412 102.653 399.101 102.524 398.777 102.523Z" fill="#E6E6E6"/>
<path d="M398.777 120.371H388.304C387.98 120.372 387.67 120.501 387.442 120.73C387.214 120.96 387.086 121.27 387.086 121.593V132.062C387.085 132.222 387.116 132.381 387.177 132.53C387.238 132.678 387.328 132.812 387.441 132.926C387.554 133.04 387.689 133.13 387.837 133.191C387.985 133.253 388.144 133.285 388.304 133.285H398.777C399.101 133.285 399.412 133.156 399.642 132.927C399.871 132.697 400 132.386 400 132.062V121.593C399.999 121.269 399.87 120.959 399.641 120.73C399.412 120.501 399.101 120.372 398.777 120.371Z" fill="#27AE60"/>
<path d="M398.777 138.218H388.304C387.98 138.219 387.671 138.349 387.442 138.578C387.214 138.807 387.086 139.117 387.086 139.441V149.91C387.085 150.07 387.116 150.229 387.177 150.377C387.238 150.525 387.328 150.66 387.441 150.774C387.554 150.887 387.689 150.977 387.837 151.039C387.985 151.1 388.144 151.132 388.304 151.132H398.777C399.101 151.132 399.412 151.003 399.642 150.774C399.871 150.545 400 150.234 400 149.91V139.441C399.999 139.117 399.87 138.807 399.641 138.577C399.412 138.348 399.101 138.219 398.777 138.218Z" fill="#E6E6E6"/>
<path d="M398.777 156.066H388.304C388.144 156.066 387.985 156.098 387.837 156.159C387.689 156.221 387.554 156.311 387.441 156.425C387.328 156.538 387.238 156.673 387.177 156.821C387.116 156.969 387.085 157.128 387.086 157.288V167.757C387.085 167.917 387.116 168.076 387.177 168.225C387.238 168.373 387.328 168.508 387.441 168.621C387.554 168.735 387.689 168.825 387.837 168.886C387.985 168.948 388.144 168.98 388.304 168.98H398.777C399.101 168.98 399.412 168.851 399.642 168.622C399.871 168.392 400 168.081 400 167.757V157.288C400 156.964 399.871 156.653 399.642 156.424C399.412 156.195 399.101 156.066 398.777 156.066Z" fill="#E6E6E6"/>
<path d="M158.062 310.416H157.771L158.02 310.383L158.062 310.416Z" fill="#2F2E41"/>
<path d="M133.005 115.247C150.75 115.247 165.136 100.861 165.136 83.1158C165.136 65.3703 150.75 50.9847 133.005 50.9847C115.259 50.9847 100.874 65.3703 100.874 83.1158C100.874 100.861 115.259 115.247 133.005 115.247Z" fill="#FFB6B6"/>
<path d="M161.143 59.5578C161.143 59.5578 169.547 43.4922 151.058 42.0317C151.058 42.0317 135.297 27.7338 119.231 39.4178C119.231 39.4178 110.468 39.4178 105.676 49.3342C105.676 49.3342 98.784 46.7204 97.2694 53.7157C97.2694 53.7157 92.2262 68.3208 97.2694 81.4654C102.313 94.61 103.988 96.0704 103.988 96.0704C103.988 96.0704 95.7007 68.5122 115.872 67.0516C136.043 65.5911 158.615 52.9855 160.296 69.051C161.977 85.1166 164.507 89.075 164.507 89.075C164.507 89.075 180.473 66.1301 161.143 59.5578Z" fill="#2F2E41"/>
<path d="M216.121 162.302L206.353 213.897L199.778 248.642L199.666 249.244L198.767 253.98L198.495 255.41L194.389 285.8L200.794 292.205L196.976 296.024L194.469 310.382L194.474 310.415L92.1713 310.415C88.0327 307.734 83.9537 304.971 79.9343 302.124L80.7762 295.822C80.7762 295.822 83.6732 284.568 82.4551 283.223C81.2418 281.878 78.5799 279.475 78.5799 279.475L82.3987 270.563L81.618 254.371L81.3076 247.956L81.2559 246.926L80.2636 226.384L80.2448 226.045L79.9438 219.818L79.6616 213.897L78.3307 186.414L77.5124 169.445L76.7976 154.674L79.671 153.7L110.405 143.255L123.135 126.705L149.631 126.903L162.602 127.002L184.245 147.074L189.169 149.425L189.206 149.444L216.018 162.25L216.121 162.302Z" fill="#CACACA"/>
<path d="M126.559 262.211C124.618 262.963 122.535 263.28 120.457 263.141C118.38 263.001 116.358 262.407 114.535 261.401C112.711 260.396 111.131 259.002 109.904 257.32C108.678 255.637 107.835 253.706 107.436 251.662L57.3219 244.553L74.7428 224.846L119.661 234.619C123.138 234.176 126.658 235.023 129.552 237.001C132.447 238.979 134.515 241.95 135.366 245.351C136.216 248.752 135.789 252.347 134.166 255.454C132.543 258.562 129.837 260.966 126.559 262.211Z" fill="#FFB6B6"/>
<path d="M104.215 226.384C103.287 225.207 101.973 224.396 100.505 224.093L79.9438 219.818L77.8322 219.381C76.605 219.125 75.4458 218.613 74.4303 217.877C73.4148 217.142 72.566 216.201 71.9394 215.115C71.2894 213.976 70.8962 212.708 70.7872 211.4C70.6892 210.211 70.8315 209.015 71.2057 207.882L78.3307 186.414L82.9536 172.484C83.5138 170.804 83.8445 169.055 83.9365 167.287C84.1941 162.392 82.6799 157.569 79.671 153.7C77.0258 150.3 73.3568 147.84 69.2063 146.685C65.0557 145.53 60.6437 145.74 56.622 147.285C56.5044 147.328 56.3822 147.375 56.2646 147.422C53.3804 148.573 50.8036 150.38 48.7378 152.699C46.672 155.018 45.1738 157.785 44.3615 160.783L39.3389 179.054L28.9783 216.719C27.9412 220.493 27.7317 224.446 28.3641 228.308C28.9965 232.171 30.456 235.851 32.6425 239.097C34.8291 242.342 37.6911 245.078 41.0328 247.115C44.3745 249.152 48.1168 250.443 52.0038 250.9L81.618 254.371L95.3222 255.979C96.9069 256.169 98.5052 255.756 99.7986 254.821C101.092 253.885 101.986 252.497 102.301 250.933C102.324 250.848 102.341 250.761 102.353 250.674L105.471 231.533L105.499 231.359C105.645 230.486 105.605 229.592 105.384 228.735C105.163 227.878 104.765 227.077 104.215 226.384Z" fill="#CACACA"/>
<path d="M158.48 262.759C160.508 263.23 162.615 263.251 164.652 262.819C166.689 262.388 168.607 261.515 170.27 260.262C171.933 259.009 173.302 257.407 174.279 255.568C175.256 253.73 175.818 251.699 175.925 249.619L224.535 235.514L204.509 218.461L161.418 234.471C157.913 234.522 154.548 235.857 151.962 238.223C149.375 240.59 147.746 243.823 147.384 247.31C147.022 250.797 147.951 254.295 149.996 257.143C152.041 259.99 155.06 261.989 158.48 262.759Z" fill="#FFB6B6"/>
<path d="M248.67 203.96L225.55 150.751C223.659 146.383 220.282 142.826 216.018 140.711C214.699 140.062 213.315 139.557 211.889 139.206C211.667 139.149 211.446 139.098 211.225 139.055C208.2 138.395 205.063 138.453 202.064 139.225C199.323 139.929 196.761 141.203 194.546 142.964C192.33 144.725 190.511 146.933 189.206 149.444C189.192 149.465 189.18 149.487 189.169 149.51C187.711 152.329 186.936 155.451 186.906 158.625C186.876 161.798 187.591 164.934 188.995 167.781L189.282 168.354L205.62 201.167C206.177 202.289 206.492 203.516 206.542 204.768C206.592 206.02 206.377 207.269 205.911 208.432C205.444 209.595 204.737 210.646 203.836 211.517C202.935 212.387 201.86 213.058 200.681 213.483L178.898 221.351C177.349 221.904 176.075 223.036 175.345 224.509C174.614 225.981 174.483 227.68 174.98 229.248L175.032 229.412L180.816 247.923C180.845 248.008 180.873 248.092 180.906 248.177C180.957 248.337 181.019 248.492 181.094 248.642C181.709 250.021 182.795 251.135 184.158 251.785C185.521 252.434 187.071 252.575 188.529 252.184L199.666 249.244L230.695 241.047C234.479 240.047 238.003 238.242 241.024 235.753C244.045 233.265 246.493 230.154 248.2 226.632C249.907 223.11 250.833 219.26 250.914 215.347C250.995 211.434 250.23 207.55 248.67 203.96Z" fill="#CACACA"/>
<path d="M21.1151 248.642C27.7793 256.771 34.9665 264.456 42.6309 271.649L255.188 271.649C257.236 271.652 259.199 272.467 260.647 273.916C262.094 275.365 262.908 277.328 262.91 279.376L263.216 333.238C276.292 327.231 288.538 319.559 299.649 310.415C302.734 307.88 305.724 305.236 308.618 302.481C310.513 300.685 312.363 298.844 314.167 296.96C327.695 282.868 338.649 266.515 346.533 248.642H21.1151Z" fill="#3F3D56"/>
<path d="M314.167 296.96C312.366 298.846 310.516 300.686 308.618 302.481H263.371V296.96H314.167Z" fill="white"/>
<path d="M215.698 120.371C215.474 119.958 215.144 119.614 214.74 119.374C214.337 119.133 213.877 119.007 213.408 119.007H59.2275C58.5362 119.009 57.8739 119.284 57.3855 119.774C56.8971 120.263 56.6226 120.926 56.6221 121.617V213.897H216.018V121.617C216.02 121.181 215.91 120.752 215.698 120.371Z" fill="#3F3D56"/>
<path d="M56.4824 211.399V222.787C56.4824 223.259 56.5754 223.726 56.7561 224.162C56.9367 224.598 57.2015 224.995 57.5353 225.328C57.8691 225.662 58.2654 225.927 58.7016 226.108C59.1377 226.288 59.6052 226.381 60.0773 226.381H118.909V248.855H118.127C118.066 248.855 118.005 248.867 117.949 248.89C117.892 248.914 117.841 248.948 117.797 248.992C117.754 249.035 117.72 249.087 117.696 249.143C117.673 249.2 117.661 249.261 117.661 249.322V250.885C117.66 250.946 117.673 251.007 117.696 251.064C117.72 251.12 117.754 251.172 117.797 251.215C117.841 251.259 117.892 251.293 117.949 251.317C118.005 251.34 118.066 251.352 118.127 251.352H154.65C154.711 251.352 154.772 251.34 154.828 251.317C154.885 251.293 154.936 251.259 154.98 251.215C155.023 251.172 155.058 251.12 155.081 251.064C155.104 251.007 155.117 250.946 155.117 250.885V249.322C155.117 249.261 155.104 249.2 155.081 249.143C155.058 249.087 155.023 249.035 154.98 248.992C154.936 248.948 154.885 248.914 154.828 248.89C154.772 248.867 154.711 248.855 154.65 248.855H153.868V226.381H212.7C213.172 226.381 213.639 226.288 214.075 226.108C214.512 225.927 214.908 225.662 215.242 225.328C215.576 224.995 215.84 224.598 216.021 224.162C216.202 223.726 216.295 223.259 216.295 222.787V211.399H56.4824Z" fill="#3F3D56"/>
<path d="M134.457 178.715C142.589 178.715 149.181 172.123 149.181 163.992C149.181 155.861 142.589 149.269 134.457 149.269C126.326 149.269 119.734 155.861 119.734 163.992C119.734 172.123 126.326 178.715 134.457 178.715Z" fill="#27AE60"/>
<path d="M171.97 81.3601H169.619C169.619 63.5831 152.025 51.934 134.276 51.9246C131.695 51.9171 129.119 52.1676 126.587 52.6724C123.737 53.2414 120.779 53.9233 117.873 54.8122C106.412 58.3253 95.7831 65.1163 95.7831 81.3601C95.7807 84.5148 96.1821 87.6568 96.9777 90.7095L94.7015 91.302C93.8572 88.0555 93.4305 84.7146 93.4317 81.3601C93.4317 67.1667 99.2586 57.4176 109.323 51.6048C114.614 48.5479 121.071 46.5774 128.468 45.618C131.547 45.2085 134.659 45.1139 137.757 45.3358C158.167 46.8031 171.97 62.4544 171.97 81.3601Z" fill="#27AE60"/>
<path d="M175.888 82.6628L174.961 75.8153C174.733 74.0861 173.9 72.4935 172.61 71.3194C171.782 70.554 170.79 69.9869 169.711 69.661C168.631 69.3351 167.492 69.2589 166.378 69.4382L164.906 69.6404C164.504 69.6934 164.115 69.8259 163.764 70.0302C163.413 70.2344 163.106 70.5064 162.861 70.8303C162.613 71.1531 162.432 71.5217 162.328 71.9147C162.224 72.3078 162.199 72.7177 162.254 73.1206L164.394 88.8941C164.482 89.537 164.77 90.1359 165.217 90.606C165.665 91.0761 166.249 91.3937 166.886 91.5136C167.075 91.5515 167.267 91.5704 167.46 91.5701C167.599 91.5701 167.737 91.5606 167.874 91.5419L169.52 91.3208C170.524 91.1877 171.489 90.8507 172.358 90.3307C173.226 89.8107 173.98 89.1186 174.571 88.2969C174.698 88.1181 174.82 87.9347 174.933 87.7466C175.814 86.2078 176.151 84.4165 175.888 82.6628Z" fill="#27AE60"/>
<path d="M163.956 69.9273C163.525 70.1371 163.149 70.4466 162.861 70.8303C162.613 71.1531 162.432 71.5217 162.328 71.9147C162.224 72.3078 162.199 72.7177 162.254 73.1206L164.394 88.8941C164.482 89.537 164.77 90.1359 165.217 90.606C165.665 91.0761 166.249 91.3937 166.886 91.5136L163.956 69.9273Z" fill="white"/>
<path d="M175.888 82.6628L174.961 75.8153C174.733 74.0861 173.9 72.4935 172.61 71.3194L174.74 87.013C174.772 87.2649 174.837 87.5115 174.933 87.7466C175.814 86.2078 176.151 84.4165 175.888 82.6628Z" fill="#3F3D56"/>
<path d="M168.565 87.5965C169.209 87.5092 169.532 85.9779 169.288 84.1762C169.044 82.3746 168.324 80.9849 167.68 81.0722C167.037 81.1594 166.713 82.6907 166.958 84.4923C167.202 86.294 167.922 87.6837 168.565 87.5965Z" fill="#3F3D56"/>
<path d="M167.155 79.1312C167.798 79.0439 168.121 77.5127 167.877 75.711C167.633 73.9094 166.913 72.5196 166.27 72.6069C165.626 72.6942 165.303 74.2255 165.547 76.0271C165.791 77.8288 166.511 79.2185 167.155 79.1312Z" fill="#3F3D56"/>
<path d="M176.09 82.4233C176.734 82.336 177.057 80.8047 176.813 79.0031C176.568 77.2014 175.848 75.8117 175.205 75.899C174.562 75.9863 174.238 77.5175 174.482 79.3192C174.727 81.1208 175.447 82.5106 176.09 82.4233Z" fill="#3F3D56"/>
<path d="M134.276 51.9246C131.695 51.9171 129.119 52.1676 126.587 52.6724C123.737 53.2414 120.779 53.9233 117.873 54.8122C113.334 54.5912 109.995 53.4154 109.323 51.6048C114.614 48.5479 121.071 46.5774 128.468 45.618C131.547 45.2085 134.659 45.1139 137.757 45.3358C138.084 45.5281 138.368 45.7875 138.588 46.0971C138.809 46.4068 138.961 46.7596 139.036 47.1323C139.257 48.769 137.39 50.509 134.276 51.9246Z" fill="#3F3D56"/>
<path d="M104.253 97.6792L100.632 82.6252C100.503 82.0821 100.216 81.5892 99.8077 81.2085C99.3994 80.8278 98.8877 80.5762 98.3368 80.4854C98.1812 80.4611 98.024 80.4486 97.8665 80.4477C97.6447 80.4485 97.4237 80.4754 97.2081 80.5277L95.8067 80.8663C94.0022 81.3027 92.4446 82.4371 91.4757 84.0206C90.5067 85.6041 90.2055 87.5074 90.6382 89.3127L92.2607 96.0661C92.6311 97.656 93.5135 99.0803 94.772 100.12C94.976 100.285 95.1896 100.437 95.4116 100.576C96.1999 101.07 97.0793 101.401 97.9977 101.55C98.916 101.699 99.8549 101.662 100.759 101.442L102.156 101.103C102.525 101.017 102.872 100.855 103.176 100.628C103.628 100.299 103.971 99.8424 104.163 99.3174C104.355 98.7923 104.386 98.2221 104.253 97.6792Z" fill="#27AE60"/>
<path d="M96.6615 94.8782C97.2928 94.7263 97.4598 93.1701 97.0344 91.4025C96.609 89.6348 95.7524 88.3249 95.1211 88.4769C94.4898 88.6288 94.3228 90.1849 94.7482 91.9526C95.1736 93.7203 96.0302 95.0301 96.6615 94.8782Z" fill="#3F3D56"/>
<path d="M91.9586 96.2891C92.5899 96.1371 92.7569 94.581 92.3315 92.8133C91.9061 91.0456 91.0495 89.7358 90.4182 89.8877C89.7868 90.0397 89.6199 91.5958 90.0453 93.3635C90.4707 95.1311 91.3273 96.441 91.9586 96.2891Z" fill="#3F3D56"/>
<path d="M104.484 97.6227L100.862 82.5687C100.721 81.9811 100.41 81.4481 99.9674 81.0365C99.5248 80.625 98.9707 80.3531 98.3744 80.2549L103.317 100.816C103.805 100.458 104.177 99.9644 104.384 99.3961C104.592 98.8277 104.626 98.2107 104.484 97.6227Z" fill="white"/>
<path d="M91.4565 86.3311C91.3565 85.9124 91.169 85.5197 90.9062 85.1788C90.3972 86.4972 90.3037 87.9397 90.6382 89.3127L92.2607 96.0661C92.6311 97.656 93.5135 99.0803 94.772 100.12L91.4565 86.3311Z" fill="#3F3D56"/>
</svg>
